<?xml version="1.0" standalone="no"?>
<!DOCTYPE svg PUBLIC "-//W3C//DTD SVG 20010904//EN"
 "http://www.w3.org/TR/2001/REC-SVG-20010904/DTD/svg10.dtd">
<svg version="1.0" xmlns="http://www.w3.org/2000/svg"
 width="852.000000pt" height="480.000000pt" viewBox="0 0 852.000000 480.000000"
 preserveAspectRatio="xMidYMid meet">

<g transform="translate(0.000000,480.000000) scale(0.100000,-0.100000)"
fill="#000000" stroke="none">
<path d="M0 3075 c0 -949 2 -1725 5 -1725 3 0 24 11 48 25 l42 26 -30 -26
c-16 -14 -38 -28 -47 -31 -16 -5 -18 -23 -18 -187 1 -207 -2 -206 71 -32 23
55 48 109 56 120 7 11 13 25 13 32 0 6 20 54 45 104 24 51 43 94 41 96 -2 2
-14 -5 -27 -15 -32 -25 -106 -68 -96 -56 4 5 38 29 75 54 64 43 67 47 74 95 9
63 69 1044 70 1145 0 54 -16 157 -60 370 -33 162 -63 307 -67 323 -7 26 -9 27
-84 29 l-76 1 95 7 c74 6 204 36 597 138 l503 131 321 -146 320 -145 55 37
c30 21 52 40 50 43 -6 5 38 42 50 42 4 0 -3 -9 -16 -20 -36 -31 -15 -24 40 14
27 18 46 37 42 41 -4 5 1 5 11 2 9 -4 17 -2 17 3 0 5 10 12 23 16 28 9 97 56
97 68 0 5 -6 3 -14 -3 -10 -9 -15 -8 -20 4 -6 17 -32 20 -41 5 -3 -5 0 -8 7
-7 7 2 10 2 6 0 -15 -9 -8 -25 8 -19 14 5 15 4 4 -9 -17 -20 -30 -19 -30 3 -1
16 -1 16 -14 0 -14 -19 -36 -24 -36 -9 0 5 11 16 25 25 14 9 25 23 25 31 0 12
5 12 27 4 14 -5 33 -7 40 -5 8 3 16 -1 19 -9 4 -8 11 -12 16 -9 7 4 4 10 -6
16 -24 14 -19 26 13 33 16 3 40 16 53 27 l23 20 -25 -7 c-14 -3 -46 -17 -72
-30 -27 -14 -50 -20 -53 -14 -4 5 1 12 9 15 9 3 16 12 16 19 0 19 24 25 102
25 62 0 69 -2 58 -15 -11 -13 -10 -14 4 -9 9 3 16 12 16 20 0 7 6 11 13 8 7
-2 76 36 153 85 76 50 167 107 201 128 57 34 73 56 52 73 -4 3 -28 49 -53 103
l-47 97 28 25 c15 13 33 25 38 25 6 0 17 10 25 22 20 28 73 78 84 78 11 0 75
73 71 80 -3 5 0 12 6 16 8 4 9 3 5 -4 -4 -7 -3 -12 3 -12 27 0 15 21 -36 66
-32 27 -54 43 -50 37 4 -6 4 -14 -1 -17 -4 -2 -9 5 -9 16 -1 11 -3 21 -5 22
-8 5 -174 152 -179 160 -4 5 -12 5 -19 1 -9 -6 -11 -4 -5 5 13 21 -16 30 -107
30 -74 0 -87 -3 -91 -17 -4 -17 -5 -17 -6 0 -1 16 -67 17 -1236 17 l-1235 0 0
-1725z m2675 1655 c-3 -5 -11 -10 -16 -10 -6 0 -7 5 -4 10 3 6 11 10 16 10 6
0 7 -4 4 -10z m42 -6 c-3 -3 -12 -4 -19 -1 -8 3 -5 6 6 6 11 1 17 -2 13 -5z
m32 -40 c6 4 11 2 11 -4 0 -17 -33 -8 -37 10 -4 12 -3 13 5 1 5 -7 15 -10 21
-7z m-203 -28 c0 -14 -5 -21 -9 -17 -4 4 -5 15 -1 24 9 24 12 21 10 -7z m309
-46 c12 -19 -12 -10 -31 11 -19 22 -19 22 3 10 12 -6 25 -16 28 -21z m-265
-60 c0 -5 -2 -10 -4 -10 -3 0 -8 5 -11 10 -3 6 -1 10 4 10 6 0 11 -4 11 -10z
m36 -21 c1 -20 -2 -26 -7 -17 -7 10 -9 11 -9 0 0 -7 -4 -10 -10 -7 -5 3 -10
11 -10 16 0 6 4 8 9 5 5 -3 11 3 14 14 7 28 12 25 13 -11z m304 -31 c0 -4 -7
-5 -15 -2 -8 4 -15 16 -15 27 0 20 0 20 15 1 8 -10 15 -22 15 -26z m-230 -151
c5 2 7 -4 3 -13 -6 -17 -12 -11 -34 31 l-10 20 16 -20 c9 -11 20 -19 25 -18z
m18 -72 c-3 -3 -9 2 -12 12 -6 14 -5 15 5 6 7 -7 10 -15 7 -18z m-608 -693
c-19 -10 -39 -16 -44 -14 -15 8 26 32 53 32 24 0 24 -1 -9 -18z m-1987 -2317
c-3 -9 -8 -14 -10 -11 -3 3 -2 9 2 15 9 16 15 13 8 -4z"/>
<path d="M3368 4543 c-88 -235 -95 -259 -80 -271 11 -8 18 -9 20 -2 2 5 8 10
14 10 6 0 8 -7 4 -15 -8 -22 61 -67 84 -55 10 5 21 6 25 2 5 -4 5 -1 1 6 -5 9
-13 9 -29 1 -20 -9 -20 -9 -5 4 10 8 40 15 67 16 l49 1 4 -44 c3 -49 -11 -62
-48 -44 -17 8 -17 8 1 -7 32 -27 55 -37 55 -25 0 5 -8 10 -17 10 -10 1 0 7 22
15 49 18 48 18 39 3 -5 -8 -2 -9 9 -5 10 3 17 2 17 -3 0 -6 18 -10 40 -10 29
0 40 4 40 15 0 12 15 15 79 15 45 0 83 5 86 10 5 8 12 7 23 -2 14 -10 15 -10
5 2 -7 8 -13 18 -13 23 0 4 6 5 13 1 7 -5 7 -1 -3 12 -22 29 -24 30 -18 13 4
-9 2 -22 -2 -30 -6 -9 -8 -1 -7 21 2 34 1 35 -33 33 -22 -1 -30 1 -21 7 8 4
20 6 28 3 14 -5 19 13 5 19 -4 2 -23 23 -42 48 -19 25 -46 59 -60 76 -14 17
-38 48 -55 69 -16 22 -71 91 -122 155 -51 63 -92 120 -93 125 0 14 69 -66 76
-87 3 -10 9 -18 13 -18 4 0 21 -19 38 -42 17 -24 39 -52 50 -63 10 -11 88
-108 174 -215 86 -107 185 -231 221 -275 35 -44 109 -136 163 -205 55 -69 107
-134 116 -145 61 -69 70 -79 65 -62 -4 11 -2 16 5 12 5 -4 7 -15 4 -25 -4 -12
2 -25 17 -36 13 -11 41 -45 63 -78 22 -32 46 -61 52 -63 7 -3 45 15 85 40 97
61 159 99 303 187 66 40 136 83 155 95 40 26 462 286 593 365 l88 54 -6 35
c-10 67 -75 553 -75 567 0 12 -162 14 -1093 14 l-1093 0 -96 -257z m3 -310
c13 -17 13 -17 -6 -3 -11 8 -22 16 -24 17 -2 2 0 3 6 3 6 0 17 -8 24 -17z
m927 -479 c-4 -3 -12 5 -18 18 -12 22 -12 22 6 6 10 -10 15 -20 12 -24z"/>
<path d="M6232 4795 c2 -3 110 -41 239 -86 129 -45 264 -91 300 -104 50 -17
70 -20 85 -12 10 6 86 53 167 104 82 52 151 93 153 90 4 -4 -167 -117 -258
-171 -27 -15 -51 -32 -54 -37 -3 -5 48 -75 113 -155 65 -80 129 -161 143 -179
14 -17 46 -56 72 -86 26 -30 90 -108 142 -174 53 -66 127 -158 165 -205 38
-47 109 -134 156 -195 48 -60 98 -121 110 -135 13 -14 66 -101 118 -195 87
-157 94 -174 94 -225 0 -33 -2 -42 -4 -22 l-4 34 -25 -34 c-14 -18 -39 -58
-57 -88 -17 -30 -83 -135 -146 -232 -64 -97 -152 -234 -196 -303 -44 -70 -86
-133 -92 -140 -7 -8 -13 -17 -13 -20 0 -4 -28 -50 -63 -103 -110 -169 -180
-282 -176 -286 2 -2 47 -26 99 -53 86 -46 560 -304 687 -374 155 -86 171 -91
153 -44 -5 14 -8 39 -6 55 2 16 0 28 -4 25 -3 -2 -6 19 -5 48 1 30 0 36 -2 15
-5 -42 -23 -52 -23 -13 0 14 -4 25 -10 25 -5 0 -10 18 -10 40 0 22 -4 40 -10
40 -5 0 -10 17 -10 39 0 22 -6 44 -15 51 -23 19 -18 40 10 40 27 0 33 -18 13
-38 -9 -9 -8 -12 4 -12 9 0 18 6 21 13 2 6 3 3 1 -8 -2 -11 3 -45 11 -75 l14
-55 -5 90 c-3 50 -10 119 -15 155 -5 36 -8 79 -8 95 2 52 69 -509 69 -576 0
-5 4 -7 10 -4 5 3 19 8 29 10 11 2 63 18 116 35 54 17 99 29 101 27 2 -2 -55
-23 -127 -46 l-132 -43 -141 73 c-78 40 -168 89 -201 109 -158 96 -655 354
-777 404 -140 57 -164 64 -152 44 4 -7 3 -8 -5 -4 -6 4 -9 11 -6 16 3 5 -16
15 -42 23 -26 8 -90 34 -141 57 -64 29 -101 40 -118 36 -30 -8 -32 6 -2 19 17
8 32 45 74 185 29 96 71 234 93 305 21 72 44 148 49 170 12 45 19 206 28 648
4 169 10 307 15 307 8 0 6 16 -6 43 -4 10 -5 54 -1 97 l6 78 -92 22 c-51 12
-239 57 -418 101 -355 87 -569 139 -576 139 -2 0 -15 -24 -29 -52 -65 -143
-412 -902 -441 -968 l-33 -75 27 -8 c15 -4 104 -23 197 -41 94 -19 258 -53
365 -76 107 -23 222 -46 255 -52 33 -6 55 -13 49 -15 -10 -3 -138 21 -404 76
-132 28 -456 91 -465 91 -5 0 42 -35 103 -79 60 -43 123 -90 138 -105 16 -14
32 -26 37 -26 8 0 96 -64 136 -99 13 -11 28 -21 32 -21 4 0 14 -6 22 -14 8 -8
30 -25 48 -38 49 -33 199 -148 199 -152 0 -2 -7 -6 -14 -9 -10 -4 -13 -1 -10
8 4 10 0 12 -17 8 -18 -5 -21 -3 -16 10 4 11 -4 22 -26 35 -18 10 -36 19 -40
20 -5 0 -16 9 -25 19 -9 11 -33 30 -52 43 -19 13 -37 27 -40 30 -16 19 -67 47
-80 43 -12 -4 -12 -3 -2 5 11 7 10 11 -5 17 -10 5 -22 7 -27 6 -4 -1 -14 3
-22 10 -7 6 -17 8 -22 5 -5 -3 -18 1 -28 9 -17 13 -17 16 -4 25 12 9 10 10 -9
5 -19 -6 -23 -4 -18 9 4 9 1 16 -6 16 -7 0 -20 8 -29 18 -44 45 -56 53 -63 43
-7 -12 39 -62 70 -76 19 -8 19 -9 -3 -12 -14 -3 -36 7 -61 26 -21 17 -46 31
-55 31 -9 0 -16 4 -16 9 0 5 -8 12 -17 15 -41 15 -63 32 -63 46 0 13 -1 13
-10 0 -8 -13 -10 -12 -10 3 0 10 -4 15 -10 12 -6 -4 -8 -41 -5 -93 3 -48 9
-233 15 -412 15 -466 20 -550 33 -550 14 -1 136 60 154 77 7 6 26 17 43 25 16
7 30 16 30 20 0 5 8 8 19 8 10 0 24 6 30 14 7 8 23 17 36 20 14 4 25 11 25 16
0 6 11 10 25 10 14 0 25 5 25 11 0 6 8 8 19 4 10 -3 24 1 31 10 16 19 30 19
30 0 0 -8 -6 -15 -12 -15 -10 0 -10 -3 0 -9 11 -6 12 -25 7 -83 l-7 -75 53 -7
c30 -3 72 -2 94 4 22 5 49 9 60 9 24 -1 5 -7 -155 -47 -107 -27 -170 -42 -372
-88 -44 -10 -74 -22 -71 -27 4 -6 1 -7 -6 -3 -7 5 -24 5 -38 1 l-25 -6 7 -212
c3 -117 9 -432 11 -702 l6 -490 38 -35 c21 -20 58 -49 81 -65 53 -36 257 -181
316 -224 l42 -31 502 0 502 0 49 36 c28 19 53 32 56 29 7 -6 -2 -14 -53 -50
-17 -12 97 -14 828 -14 l847 -1 0 706 0 707 -32 -7 c-24 -4 -29 -3 -18 4 8 5
23 10 32 10 17 0 18 91 18 1690 l0 1690 -1147 0 c-630 0 -1144 -2 -1141 -5z
m303 -925 c3 -6 -1 -7 -9 -4 -18 7 -21 14 -7 14 6 0 13 -4 16 -10z m1463
-1040 c-1 -28 -2 -25 -8 15 -5 28 -8 66 -8 85 1 28 2 25 8 -15 5 -27 8 -66 8
-85z m-1811 44 c-3 -3 -12 -4 -19 -1 -8 3 -5 6 6 6 11 1 17 -2 13 -5z m73 -14
c20 -6 21 -8 5 -8 -11 0 -31 4 -45 8 -20 6 -21 8 -5 8 11 0 31 -4 45 -8z m67
-16 c-3 -3 -12 -4 -19 -1 -8 3 -5 6 6 6 11 1 17 -2 13 -5z m150 -30 c-3 -3
-12 -4 -19 -1 -8 3 -5 6 6 6 11 1 17 -2 13 -5z m1530 -86 c-3 -7 -5 -2 -5 12
0 14 2 19 5 13 2 -7 2 -19 0 -25z m-2377 -2 c-7 -7 -13 -7 -20 0 -6 6 -3 10
10 10 13 0 16 -4 10 -10z m100 -66 c8 -5 10 -10 4 -10 -7 0 -22 9 -35 21 -19
16 -20 18 -4 10 11 -6 27 -15 35 -21z m2287 -32 c-2 -13 -4 -5 -4 17 -1 22 1
32 4 23 2 -10 2 -28 0 -40z m10 -95 c-3 -10 -5 -2 -5 17 0 19 2 27 5 18 2 -10
2 -26 0 -35z m-2017 -31 c0 -4 18 -18 39 -32 22 -13 38 -28 35 -32 -3 -4 -15
1 -26 12 -12 11 -34 25 -49 32 -15 7 -25 16 -23 20 7 10 24 10 24 0z m2027
-49 c-3 -10 -5 -4 -5 12 0 17 2 24 5 18 2 -7 2 -21 0 -30z m-1922 -33 c3 -5 1
-10 -4 -10 -6 0 -11 5 -11 10 0 6 2 10 4 10 3 0 8 -4 11 -10z m1932 -57 c-3
-10 -5 -4 -5 12 0 17 2 24 5 18 2 -7 2 -21 0 -30z m-1799 -31 c34 -24 60 -48
57 -52 -6 -10 -65 20 -65 33 0 4 -7 7 -16 7 -8 0 -13 4 -10 8 3 5 -8 8 -24 7
-27 -2 -30 1 -30 27 0 33 -3 34 88 -30z m1809 -79 c-3 -10 -5 -4 -5 12 0 17 2
24 5 18 2 -7 2 -21 0 -30z m10 -80 c-3 -10 -5 -4 -5 12 0 17 2 24 5 18 2 -7 2
-21 0 -30z m10 -100 c-3 -10 -5 -4 -5 12 0 17 2 24 5 18 2 -7 2 -21 0 -30z
m-2049 0 c-10 -2 -18 -12 -18 -20 0 -9 -3 -14 -6 -10 -12 11 5 37 23 36 17 -1
17 -2 1 -6z m465 -30 c-7 -2 -19 -2 -25 0 -7 3 -2 5 12 5 14 0 19 -2 13 -5z
m-46 -9 c-3 -3 -12 -4 -19 -1 -8 3 -5 6 6 6 11 1 17 -2 13 -5z m-87 -20 c-30
-7 -59 -12 -65 -10 -12 4 71 24 100 24 11 0 -5 -6 -35 -14z m1727 -46 c-2 -13
-4 -5 -4 17 -1 22 1 32 4 23 2 -10 2 -28 0 -40z m-2140 14 c-9 -2 -15 -8 -12
-13 4 -5 2 -9 -4 -9 -5 0 -9 8 -8 19 1 13 6 17 22 12 17 -4 18 -6 2 -9z m313
8 c-14 -4 -34 -8 -45 -8 -16 0 -15 2 5 8 14 4 34 8 45 8 16 0 15 -2 -5 -8z
m-160 -36 c-52 -12 -102 -23 -110 -22 -21 1 161 47 185 46 11 0 -23 -11 -75
-24z m1466 -11 c-7 -7 -26 7 -26 19 0 6 6 6 15 -2 9 -7 13 -15 11 -17z m-591
-61 c-3 -3 -11 0 -18 7 -9 10 -8 11 6 5 10 -3 15 -9 12 -12z m-850 -82 c-3 -5
-12 -10 -18 -10 -7 0 -6 4 3 10 19 12 23 12 15 0z m1635 -51 c0 -5 14 -22 32
-39 17 -17 29 -33 25 -36 -6 -6 -64 51 -78 78 -7 14 -6 16 6 12 8 -4 15 -10
15 -15z m-1740 -10 c-25 -17 -96 -52 -87 -43 12 12 81 52 92 53 6 0 3 -4 -5
-10z m-130 -73 c0 -2 -7 -7 -16 -10 -8 -3 -12 -2 -9 4 6 10 25 14 25 6z m1968
-32 c-10 -10 -28 6 -28 24 0 15 1 15 17 -1 9 -9 14 -19 11 -23z m-2038 -8 c0
-2 -7 -7 -16 -10 -8 -3 -12 -2 -9 4 6 10 25 14 25 6z m2075 -26 c3 -5 2 -10
-4 -10 -5 0 -13 5 -16 10 -3 6 -2 10 4 10 5 0 13 -4 16 -10z m-2155 -15 c0 -2
-10 -9 -22 -15 -22 -11 -22 -10 -4 4 21 17 26 19 26 11z m2190 -26 c0 -6 -4
-7 -10 -4 -5 3 -10 11 -10 16 0 6 5 7 10 4 6 -3 10 -11 10 -16z m-2270 -23 c0
-2 -7 -7 -16 -10 -8 -3 -12 -2 -9 4 6 10 25 14 25 6z m2350 -63 c0 -8 -13 2
-30 20 -16 19 -30 37 -30 41 0 3 14 -6 30 -21 17 -14 30 -32 30 -40z m-2405
37 c-3 -6 -21 -17 -38 -26 -36 -19 -31 -9 10 17 34 21 36 22 28 9z m2470 -108
c-6 -6 -45 28 -45 39 0 5 11 -1 25 -13 14 -12 23 -24 20 -26z m-2595 33 c0 -2
-18 -14 -40 -25 -22 -11 -40 -18 -40 -15 0 2 17 13 38 24 42 23 42 23 42 16z
m2810 -29 c0 -2 -8 -10 -17 -17 -16 -13 -17 -12 -4 4 13 16 21 21 21 13z
m-174 -41 c17 -16 14 -18 -10 -9 -9 3 -16 10 -16 15 0 13 9 11 26 -6z m-2781
-15 c-3 -5 -12 -10 -18 -10 -7 0 -6 4 3 10 19 12 23 12 15 0z m192 -1047 c84
-14 151 -28 149 -31 -3 -2 -33 1 -68 7 -68 11 -175 29 -223 37 -32 5 -47 14
-25 14 7 0 82 -12 167 -27z m250 -49 c-3 -3 -12 -4 -19 -1 -8 3 -5 6 6 6 11 1
17 -2 13 -5z"/>
<path d="M5672 4765 c0 -16 2 -22 5 -12 2 9 2 23 0 30 -3 6 -5 -1 -5 -18z"/>
<path d="M5956 4774 c-20 -14 -20 -14 0 -28 10 -8 21 -12 24 -10 2 3 -2 9 -10
15 -13 8 -13 10 0 18 8 6 12 12 10 15 -3 2 -14 -2 -24 -10z"/>
<path d="M6166 4781 c-4 -5 3 -7 14 -4 23 6 26 13 6 13 -8 0 -17 -4 -20 -9z"/>
<path d="M6210 4770 c0 -5 -8 -11 -17 -13 -17 -4 -17 -5 0 -6 10 0 15 -5 12
-11 -6 -11 42 -26 52 -16 4 3 -4 6 -16 6 -12 0 -19 4 -16 10 3 6 0 10 -7 11
-7 0 -4 4 6 8 18 7 18 8 3 14 -9 3 -17 2 -17 -3z"/>
<path d="M5840 4735 c0 -8 7 -15 16 -15 14 0 14 3 4 15 -7 8 -14 15 -16 15 -2
0 -4 -7 -4 -15z"/>
<path d="M6298 4723 c7 -3 16 -2 19 1 4 3 -2 6 -13 5 -11 0 -14 -3 -6 -6z"/>
<path d="M5920 4710 c0 -5 5 -10 10 -10 6 0 10 5 10 10 0 6 -4 10 -10 10 -5 0
-10 -4 -10 -10z"/>
<path d="M6400 4710 c0 -5 6 -10 13 -10 8 0 7 -4 -3 -10 -12 -8 -10 -10 10
-11 14 -1 29 -1 34 0 4 1 17 -1 28 -5 16 -5 18 -8 7 -15 -12 -7 -11 -9 1 -8 8
0 24 4 35 8 16 7 11 11 -32 24 -28 8 -61 20 -72 27 -14 7 -21 7 -21 0z"/>
<path d="M6020 4701 c0 -4 13 -15 30 -24 20 -12 28 -14 25 -5 -6 14 -55 40
-55 29z"/>
<path d="M6408 4663 c7 -3 16 -2 19 1 4 3 -2 6 -13 5 -11 0 -14 -3 -6 -6z"/>
<path d="M5980 4649 c0 -5 9 -9 19 -9 11 0 22 4 25 9 3 5 -6 9 -19 9 -14 0
-25 -4 -25 -9z"/>
<path d="M6535 4651 c-15 -7 -11 -9 18 -9 49 0 58 -9 30 -32 -13 -10 -23 -25
-23 -34 0 -12 -10 -16 -40 -16 -37 0 -40 -2 -40 -26 0 -26 -2 -26 -50 -22 -70
7 -95 -19 -40 -42 17 -7 29 -15 26 -17 -2 -3 -19 2 -38 10 -18 9 -44 18 -58
21 -14 3 -19 3 -12 0 6 -3 12 -11 12 -17 1 -22 48 -48 67 -38 10 5 32 13 48
17 27 6 28 7 10 15 -17 8 -16 8 6 4 25 -4 56 2 122 27 21 8 25 13 15 20 -8 6
-4 7 12 3 15 -3 64 9 119 29 l95 33 -125 42 c-68 22 -126 41 -129 40 -3 0 -14
-4 -25 -8z"/>
<path d="M6126 4615 c15 -13 31 -22 34 -19 6 7 -38 44 -53 44 -5 0 3 -11 19
-25z"/>
<path d="M2930 4591 c0 -6 4 -13 10 -16 6 -3 7 1 4 9 -7 18 -14 21 -14 7z"/>
<path d="M6087 4593 c-12 -12 -7 -22 8 -17 8 4 15 10 15 15 0 11 -14 12 -23 2z"/>
<path d="M5721 4574 c0 -11 3 -14 6 -6 3 7 2 16 -1 19 -3 4 -6 -2 -5 -13z"/>
<path d="M5701 4544 c0 -11 3 -14 6 -6 3 7 2 16 -1 19 -3 4 -6 -2 -5 -13z"/>
<path d="M6229 4537 c13 -14 18 -15 26 -4 5 8 17 16 25 19 8 3 -3 5 -25 4 -38
-1 -40 -2 -26 -19z"/>
<path d="M6560 4466 c-140 -51 -302 -109 -360 -130 -58 -20 -176 -63 -263 -94
-86 -31 -152 -59 -145 -63 7 -3 117 -31 243 -62 669 -163 767 -187 781 -187
12 0 14 31 14 193 0 107 3 249 7 315 5 101 4 122 -8 121 -8 0 -129 -42 -269
-93z"/>
<path d="M6166 4524 c-9 -24 -7 -28 9 -14 17 14 20 30 6 30 -5 0 -12 -7 -15
-16z"/>
<path d="M6193 4501 c-11 -18 -10 -20 18 -19 28 1 29 2 13 20 -21 22 -17 22
-31 -1z"/>
<path d="M6270 4510 c0 -5 7 -10 16 -10 8 0 12 5 9 10 -3 6 -10 10 -16 10 -5
0 -9 -4 -9 -10z"/>
<path d="M6252 4434 c-8 -8 -12 -20 -9 -27 3 -8 -10 -13 -37 -15 -51 -3 -126
-37 -126 -57 0 -8 5 -15 10 -15 6 0 9 5 8 12 -2 6 12 12 34 14 57 4 162 45
146 56 -9 6 -6 7 9 3 13 -3 30 -2 39 3 15 9 15 10 -4 16 -12 4 -22 12 -22 17
0 14 -34 10 -48 -7z"/>
<path d="M6916 4410 c7 -28 12 -35 18 -29 2 2 -2 15 -10 29 l-15 25 7 -25z"/>
<path d="M6965 4392 c9 -18 25 -42 36 -53 10 -10 19 -22 19 -26 1 -24 13 -44
22 -35 10 10 -8 46 -39 82 -7 8 -22 26 -34 40 l-20 25 16 -33z"/>
<path d="M6110 4390 c-13 -8 -13 -10 2 -10 9 0 20 5 23 10 8 13 -5 13 -25 0z"/>
<path d="M6937 4356 c-4 -9 -2 -18 4 -21 5 -4 7 -10 4 -15 -3 -4 -1 -19 4 -32
7 -18 8 -13 6 25 -2 51 -9 67 -18 43z"/>
<path d="M5730 4331 c0 -6 4 -13 10 -16 6 -3 7 1 4 9 -7 18 -14 21 -14 7z"/>
<path d="M6005 4311 c-17 -4 -25 -9 -19 -13 6 -4 27 -3 47 3 62 17 40 25 -28
10z"/>
<path d="M5945 4280 c-13 -6 -15 -9 -5 -9 8 0 22 4 30 9 18 12 2 12 -25 0z"/>
<path d="M6972 4282 c2 -8 7 -13 12 -12 5 1 13 -4 17 -12 5 -7 9 -8 9 -3 0 6
-5 17 -10 25 -9 13 -10 13 -10 0 0 -13 -1 -13 -11 0 -7 10 -9 11 -7 2z"/>
<path d="M7053 4263 c4 -24 49 -103 56 -99 3 2 7 -6 7 -17 2 -29 44 -98 55
-91 5 3 9 12 9 20 0 8 4 13 9 10 17 -11 22 27 5 43 -9 9 -14 10 -10 4 12 -21
-4 -15 -26 10 -11 12 -16 16 -12 8 5 -10 3 -12 -5 -7 -9 6 -9 11 0 22 18 22
-4 42 -26 24 -9 -8 -15 -8 -15 -2 0 6 4 13 10 17 5 3 7 12 3 21 -4 12 -8 12
-20 2 -12 -10 -14 -9 -12 7 4 22 -7 45 -22 45 -5 0 -8 -8 -6 -17z"/>
<path d="M5741 4254 c0 -11 3 -14 6 -6 3 7 2 16 -1 19 -3 4 -6 -2 -5 -13z"/>
<path d="M3150 4098 c-58 -89 -124 -192 -147 -229 l-43 -69 33 -10 32 -10 -38
6 c-31 4 -121 -27 -565 -192 -290 -108 -534 -204 -543 -214 -14 -14 -65 -106
-224 -405 -90 -168 -212 -400 -280 -530 -75 -144 -115 -219 -152 -282 -14 -24
-22 -43 -18 -43 3 0 140 -27 303 -60 163 -33 386 -78 494 -100 193 -39 200
-42 315 -104 65 -35 165 -88 223 -119 58 -30 152 -81 210 -112 58 -32 110 -57
115 -58 6 0 94 46 195 103 102 57 210 117 240 133 127 68 506 280 515 288 12
12 -4 11 -103 -2 -44 -6 -89 -9 -99 -7 -10 2 32 10 92 16 61 7 124 15 141 18
35 6 17 -27 264 494 106 222 214 448 334 695 45 94 51 111 37 117 -9 4 -151
39 -316 78 -361 87 -406 98 -381 99 10 1 84 -15 165 -35 256 -62 430 -103 463
-109 10 -2 24 -7 31 -11 54 -30 -49 44 -264 191 -140 95 -317 217 -394 270
-304 210 -518 355 -524 355 -3 -1 -53 -73 -111 -162z m-93 -324 c-3 -3 -12 -4
-19 -1 -8 3 -5 6 6 6 11 1 17 -2 13 -5z m40 -10 c-3 -3 -12 -4 -19 -1 -8 3 -5
6 6 6 11 1 17 -2 13 -5z m73 -14 c20 -6 21 -8 5 -8 -11 0 -29 3 -40 8 -25 11
1 11 35 0z m57 -16 c-3 -3 -12 -4 -19 -1 -8 3 -5 6 6 6 11 1 17 -2 13 -5z
m140 -31 c59 -15 103 -28 98 -30 -6 -1 -59 11 -120 26 -60 16 -104 30 -97 30
7 1 61 -11 119 -26z m268 -65 c71 -17 126 -33 120 -34 -5 -2 -71 12 -145 30
-74 19 -128 34 -120 35 8 1 73 -13 145 -31z m-72 -1565 c-13 -2 -33 -2 -45 0
-13 2 -3 4 22 4 25 0 35 -2 23 -4z m-90 -10 c-7 -2 -19 -2 -25 0 -7 3 -2 5 12
5 14 0 19 -2 13 -5z m-90 -10 c-7 -2 -19 -2 -25 0 -7 3 -2 5 12 5 14 0 19 -2
13 -5z m-76 -9 c-3 -3 -12 -4 -19 -1 -8 3 -5 6 6 6 11 1 17 -2 13 -5z"/>
<path d="M7045 4181 c6 -18 4 -22 -6 -16 -8 5 -10 4 -6 0 9 -11 37 -16 37 -7
0 4 -8 16 -16 27 -16 20 -16 19 -9 -4z"/>
<path d="M3086 4155 c-9 -26 -7 -32 5 -12 6 10 9 21 6 23 -2 3 -7 -2 -11 -11z"/>
<path d="M3550 4134 c0 -10 31 -36 37 -31 3 3 -2 13 -10 22 -16 15 -27 19 -27
9z"/>
<path d="M7015 4110 c-4 -17 -5 -34 -2 -36 2 -3 7 10 11 27 8 42 0 50 -9 9z"/>
<path d="M7080 4120 c6 -11 13 -20 16 -20 2 0 0 9 -6 20 -6 11 -13 20 -16 20
-2 0 0 -9 6 -20z"/>
<path d="M3040 4119 c0 -5 5 -7 10 -4 6 3 10 8 10 11 0 2 -4 4 -10 4 -5 0 -10
-5 -10 -11z"/>
<path d="M3923 4103 c0 -11 7 -20 14 -20 10 0 10 4 1 16 -7 9 -13 18 -15 20
-1 2 -1 -5 0 -16z"/>
<path d="M7050 4100 c6 -11 15 -20 20 -20 6 0 2 9 -7 20 -10 11 -19 20 -21 20
-1 0 2 -9 8 -20z"/>
<path d="M3540 4100 c0 -5 5 -10 11 -10 5 0 7 5 4 10 -3 6 -8 10 -11 10 -2 0
-4 -4 -4 -10z"/>
<path d="M5630 4100 c-9 -6 -10 -10 -3 -10 6 0 15 5 18 10 8 12 4 12 -15 0z"/>
<path d="M3056 4083 c-6 -14 -5 -15 5 -6 7 7 10 15 7 18 -3 3 -9 -2 -12 -12z"/>
<path d="M2980 4049 c0 -5 5 -7 10 -4 6 3 10 8 10 11 0 2 -4 4 -10 4 -5 0 -10
-5 -10 -11z"/>
<path d="M3031 4046 c-7 -8 -8 -17 -3 -20 6 -3 13 1 16 10 9 23 2 28 -13 10z"/>
<path d="M7031 4044 c0 -11 3 -14 6 -6 3 7 2 16 -1 19 -3 4 -6 -2 -5 -13z"/>
<path d="M2925 4041 c3 -6 -3 -14 -12 -20 -10 -6 -13 -11 -7 -11 5 0 16 6 22
12 10 10 15 10 22 -2 5 -8 10 -10 10 -4 0 12 -21 34 -33 34 -4 0 -6 -4 -2 -9z"/>
<path d="M2840 4003 c-8 -3 -46 -26 -85 -51 -88 -57 -154 -100 -228 -146 -36
-22 -55 -41 -51 -48 4 -6 3 -8 -4 -5 -13 9 -158 -80 -154 -94 1 -6 -2 -8 -7
-4 -6 3 -43 -16 -83 -43 -40 -27 -112 -73 -160 -102 -89 -56 -106 -72 -47 -46
19 8 115 45 214 82 99 37 186 69 193 72 11 4 11 6 0 14 -8 6 -4 7 12 3 15 -4
50 4 90 21 60 24 163 63 269 101 38 14 42 18 25 25 -17 7 -16 8 3 4 28 -5 103
13 103 25 0 5 -15 40 -34 77 -40 80 -53 117 -37 108 6 -4 11 -2 11 3 0 12 -6
13 -30 4z m-57 -220 c-13 -2 -33 -2 -45 0 -13 2 -3 4 22 4 25 0 35 -2 23 -4z
m-266 -19 c-3 -3 -12 -4 -19 -1 -8 3 -5 6 6 6 11 1 17 -2 13 -5z m203 -19
c-14 -8 -32 -14 -40 -14 -8 0 -1 6 15 14 40 18 57 18 25 0z"/>
<path d="M2990 4006 c0 -2 7 -9 15 -16 13 -11 14 -10 9 4 -5 14 -24 23 -24 12z"/>
<path d="M7126 3993 c-6 -14 -5 -15 5 -6 7 7 10 15 7 18 -3 3 -9 -2 -12 -12z"/>
<path d="M2990 3959 c0 -5 5 -7 10 -4 6 3 10 8 10 11 0 2 -4 4 -10 4 -5 0 -10
-5 -10 -11z"/>
<path d="M7061 3944 c0 -11 3 -14 6 -6 3 7 2 16 -1 19 -3 4 -6 -2 -5 -13z"/>
<path d="M2976 3923 c-6 -14 -5 -15 5 -6 7 7 10 15 7 18 -3 3 -9 -2 -12 -12z"/>
<path d="M4030 3930 c-9 -6 -10 -10 -3 -10 6 0 15 5 18 10 8 12 4 12 -15 0z"/>
<path d="M7080 3921 c0 -7 -4 -9 -10 -6 -6 4 -7 -1 -3 -11 6 -15 7 -15 15 1 6
9 7 19 4 22 -3 4 -6 1 -6 -6z"/>
<path d="M3885 3910 c3 -5 8 -10 11 -10 2 0 4 5 4 10 0 6 -5 10 -11 10 -5 0
-7 -4 -4 -10z"/>
<path d="M3836 3898 c3 -4 11 -5 19 -1 21 7 19 12 -4 10 -11 0 -18 -5 -15 -9z"/>
<path d="M7390 3870 c12 -16 24 -30 26 -30 3 0 -4 14 -16 30 -12 17 -24 30
-26 30 -3 0 4 -13 16 -30z"/>
<path d="M3956 3815 c10 -8 23 -15 28 -15 6 0 1 7 -10 15 -10 8 -23 15 -28 15
-6 0 -1 -7 10 -15z"/>
<path d="M7440 3813 c0 -6 7 -16 15 -23 8 -7 15 -18 15 -26 0 -7 5 -16 10 -19
18 -11 11 10 -15 45 -14 19 -25 29 -25 23z"/>
<path d="M7220 3742 c0 -20 104 -103 123 -98 15 4 16 2 6 -10 -9 -11 -8 -14 2
-14 8 0 20 -9 27 -21 7 -12 16 -19 18 -16 7 7 -23 54 -53 85 -13 15 -27 21
-35 16 -7 -4 -10 -4 -6 1 5 5 0 14 -10 20 -54 37 -72 46 -72 37z"/>
<path d="M2340 3720 c-9 -6 -10 -10 -3 -10 6 0 15 5 18 10 8 12 4 12 -15 0z"/>
<path d="M7356 3717 c3 -10 9 -15 12 -12 3 3 0 11 -7 18 -10 9 -11 8 -5 -6z"/>
<path d="M7511 3713 c8 -10 17 -20 20 -23 4 -3 9 -14 11 -25 2 -11 9 -19 14
-18 5 1 11 -7 11 -18 2 -24 -6 -24 -23 -1 -7 9 -14 12 -14 6 0 -16 27 -37 39
-30 5 4 12 2 15 -3 11 -17 -10 -21 -30 -6 -22 16 -34 19 -34 7 0 -5 19 -19 42
-32 38 -21 41 -22 35 -4 -4 12 4 7 21 -13 25 -28 95 -83 108 -83 5 0 -124 157
-182 223 -34 37 -58 52 -33 20z"/>
<path d="M6874 3692 c-7 -4 -14 -45 -17 -92 l-6 -85 12 83 c8 52 18 86 27 92
8 5 11 10 5 10 -5 0 -15 -4 -21 -8z"/>
<path d="M1169 3666 c-2 -3 -130 -37 -284 -76 -154 -39 -356 -92 -450 -117
-93 -25 -182 -48 -197 -50 -26 -5 -24 -8 88 -157 63 -83 138 -182 166 -220 47
-63 53 -67 65 -50 7 10 52 59 101 109 48 50 120 127 161 170 41 44 112 119
157 166 46 48 80 89 77 93 -4 3 -1 6 6 6 7 0 9 5 5 12 -4 6 -3 8 3 5 13 -8 46
27 36 38 -5 4 -3 5 3 2 6 -3 28 12 49 33 22 22 34 40 29 40 -6 0 -13 -2 -15
-4z m-706 -243 c-13 -2 -33 -2 -45 0 -13 2 -3 4 22 4 25 0 35 -2 23 -4z m375
-10 c-38 -2 -98 -2 -135 0 -38 2 -7 3 67 3 74 0 105 -1 68 -3z"/>
<path d="M1241 3560 c-1 -60 -4 -116 -7 -124 -7 -17 -18 -17 292 -22 139 -2
260 -7 270 -11 17 -6 17 -5 5 10 -7 9 -18 17 -24 17 -5 0 -51 20 -101 43 -50
24 -145 68 -211 97 -66 29 -142 64 -169 77 -28 12 -51 23 -52 23 -1 0 -3 -49
-3 -110z m26 -32 c-3 -8 -6 -5 -6 6 -1 11 2 17 5 13 3 -3 4 -12 1 -19z"/>
<path d="M1200 3643 c-8 -10 -15 -24 -16 -30 -2 -31 -5 -35 -18 -30 -11 5 -13
0 -6 -23 6 -21 4 -32 -6 -41 -8 -6 -14 -19 -14 -29 0 -9 -11 -29 -24 -43 l-24
-25 59 -4 59 -3 1 90 c0 50 2 105 3 123 4 37 5 37 -14 15z m0 -83 c0 -5 -4
-10 -10 -10 -5 0 -10 5 -10 10 0 6 5 10 10 10 6 0 10 -4 10 -10z"/>
<path d="M7403 3632 c2 -4 21 -35 42 -69 36 -60 54 -80 41 -48 -3 8 0 15 5 15
7 0 9 -11 7 -25 -4 -20 0 -25 24 -30 41 -9 203 -33 205 -31 2 2 -9 9 -25 17
-15 7 -45 25 -67 40 -63 41 -236 139 -232 131z"/>
<path d="M4290 3586 c0 -2 7 -7 16 -10 8 -3 12 -2 9 4 -6 10 -25 14 -25 6z"/>
<path d="M1125 3560 c-3 -5 -1 -10 4 -10 6 0 11 5 11 10 0 6 -2 10 -4 10 -3 0
-8 -4 -11 -10z"/>
<path d="M1112 3480 c0 -14 2 -19 5 -12 2 6 2 18 0 25 -3 6 -5 1 -5 -13z"/>
<path d="M7388 3473 c7 -3 16 -2 19 1 4 3 -2 6 -13 5 -11 0 -14 -3 -6 -6z"/>
<path d="M7438 3463 c7 -3 16 -2 19 1 4 3 -2 6 -13 5 -11 0 -14 -3 -6 -6z"/>
<path d="M1011 3446 c-10 -12 -8 -16 9 -21 28 -9 31 -4 15 18 -11 15 -14 15
-24 3z"/>
<path d="M6931 3424 c0 -11 3 -14 6 -6 3 7 2 16 -1 19 -3 4 -6 -2 -5 -13z"/>
<path d="M7384 3419 c-3 -6 -1 -16 5 -22 9 -9 10 -7 5 7 -6 16 -4 18 10 13 10
-4 15 -3 11 3 -8 13 -22 13 -31 -1z"/>
<path d="M907 3334 c-32 -35 -56 -68 -53 -73 4 -5 1 -13 -5 -17 -8 -4 -9 -3
-5 4 4 7 4 12 0 12 -9 0 -54 -49 -53 -58 1 -4 0 -11 -1 -17 -2 -5 -3 -19 -4
-30 -1 -23 -27 -27 -33 -5 -4 13 -3 13 6 0 5 -8 14 -11 18 -6 4 5 2 11 -5 13
-10 4 -9 10 4 27 10 11 -13 -9 -50 -46 -37 -37 -65 -72 -61 -78 3 -5 -1 -10
-9 -10 -8 0 -18 -4 -21 -10 -4 -6 2 -7 17 -1 13 5 22 14 20 21 -1 6 9 3 22 -7
14 -10 26 -23 26 -29 0 -6 14 -17 31 -24 17 -7 37 -19 44 -26 11 -11 23 -9 70
10 32 13 54 25 49 28 -5 3 -3 3 4 1 7 -1 68 20 135 48 67 28 130 53 140 56 15
5 17 21 17 144 l0 139 -110 0 c-103 0 -113 -2 -133 -23 -12 -13 -16 -15 -8 -5
8 10 12 20 10 22 -2 1 -30 -25 -62 -60z m146 21 c-3 -9 -8 -14 -10 -11 -3 3
-2 9 2 15 9 16 15 13 8 -4z m-110 -29 c4 -11 1 -13 -10 -9 -12 5 -15 2 -10
-10 4 -11 2 -14 -9 -10 -13 5 -13 8 2 24 21 23 20 23 27 5z m-78 -105 c-3 -6
-11 -11 -17 -11 -6 0 -6 6 2 15 14 17 26 13 15 -4z m22 -186 c-4 -8 -11 -15
-17 -15 -6 0 -6 7 2 20 14 22 24 19 15 -5z m-27 -25 c8 -5 11 -10 5 -10 -5 0
-17 5 -25 10 -8 5 -10 10 -5 10 6 0 17 -5 25 -10z m-23 -26 c-3 -3 -12 -4 -19
-1 -8 3 -5 6 6 6 11 1 17 -2 13 -5z"/>
<path d="M1230 3269 c0 -101 3 -130 13 -126 6 3 75 31 152 62 77 32 154 63
170 70 17 6 53 22 80 34 28 13 67 30 87 38 21 8 35 19 32 24 -3 5 2 6 10 3 8
-3 22 -2 31 4 23 12 -146 22 -387 22 l-188 0 0 -131z"/>
<path d="M4530 3373 c5 -16 19 -62 31 -103 12 -41 30 -102 40 -134 11 -33 19
-68 19 -78 0 -11 4 -17 9 -14 5 4 7 -2 5 -11 -3 -10 6 -54 20 -98 14 -44 25
-73 26 -65 1 8 8 -1 16 -20 l14 -35 -6 45 c-4 37 -3 42 7 26 6 -10 9 -37 6
-62 -4 -42 12 -74 38 -74 5 0 -1 9 -13 20 -12 12 -22 23 -22 26 0 5 6 4 59
-11 17 -5 21 -4 16 5 -4 7 -2 10 7 8 7 -2 37 12 66 31 51 32 67 49 36 37 -9
-3 -12 -2 -9 5 4 5 15 7 24 4 16 -5 85 39 101 64 3 5 14 11 25 15 11 3 38 22
60 41 22 19 32 32 22 29 -13 -5 -16 -2 -11 11 5 12 14 15 32 12 14 -3 31 1 39
8 11 11 5 17 -35 31 -26 10 -62 29 -81 42 -25 16 -43 21 -62 17 -16 -4 -30 -1
-34 5 -5 9 -1 10 16 5 17 -5 21 -4 14 3 -5 6 -23 14 -40 18 -27 7 -29 6 -16
-10 21 -25 10 -28 -32 -8 -43 20 -49 41 -9 35 21 -4 24 -2 12 6 -8 6 -27 8
-42 5 -17 -3 -28 -1 -28 5 0 6 8 11 18 11 14 0 15 2 2 10 -20 13 -33 13 -25 0
10 -16 -29 -12 -51 6 -18 15 -18 15 11 9 22 -4 26 -3 15 5 -8 5 -23 10 -32 10
-10 0 -18 4 -18 10 0 5 -7 6 -17 3 -12 -5 -14 -3 -8 7 6 10 4 12 -8 7 -11 -4
-17 -1 -17 8 0 9 -6 12 -17 8 -10 -4 -14 -2 -9 5 5 9 -26 27 -44 24 -3 0 -10
4 -16 9 -12 10 -103 59 -109 59 -2 0 1 -12 5 -27z m545 -271 c5 -12 13 -22 17
-22 5 0 8 -7 8 -15 0 -8 -5 -15 -10 -15 -6 0 -13 7 -16 15 -4 8 -12 15 -20 15
-8 0 -11 6 -7 17 4 11 3 14 -5 9 -7 -4 -19 -1 -27 7 -12 13 -10 14 18 13 23
-1 35 -8 42 -24z m90 -32 c3 -5 2 -10 -4 -10 -5 0 -13 5 -16 10 -3 6 -2 10 4
10 5 0 13 -4 16 -10z m-105 -91 c0 -6 -4 -7 -10 -4 -5 3 -10 11 -10 16 0 6 5
7 10 4 6 -3 10 -11 10 -16z m-50 -23 c0 -2 -7 -6 -15 -10 -8 -3 -15 -1 -15 4
0 6 7 10 15 10 8 0 15 -2 15 -4z m-319 -43 c-8 -15 -10 -15 -11 -2 0 17 10 32
18 25 2 -3 -1 -13 -7 -23z m147 -54 c-18 -9 -35 -15 -38 -12 -3 3 1 8 9 11 9
3 10 7 2 11 -6 4 5 7 25 7 l35 0 -33 -17z m2 -34 c-7 -8 -20 -15 -29 -15 -12
1 -11 5 8 21 26 22 41 18 21 -6z"/>
<path d="M7447 3385 c-4 -8 -2 -17 3 -20 6 -4 10 3 10 14 0 25 -6 27 -13 6z"/>
<path d="M4504 3375 c3 -8 0 -15 -6 -15 -7 0 -6 -5 2 -15 7 -8 10 -25 7 -37
-3 -13 0 -34 7 -47 l13 -24 5 27 c5 26 -18 126 -29 126 -3 0 -3 -7 1 -15z"/>
<path d="M220 3376 c0 -16 112 -565 118 -580 7 -16 21 -4 99 79 l92 98 -27 36
c-64 86 -95 120 -105 114 -6 -3 -7 -1 -3 5 4 7 -13 38 -38 71 -25 33 -46 64
-46 70 0 6 -4 11 -8 11 -5 0 -23 23 -41 50 -29 45 -41 58 -41 46z"/>
<path d="M1767 3333 c-4 -3 -7 -11 -7 -17 0 -6 5 -4 11 4 8 12 10 10 5 -10 -5
-24 -4 -24 9 -6 8 11 15 23 15 28 0 10 -24 11 -33 1z"/>
<path d="M1806 3313 c-6 -14 -5 -15 5 -6 7 7 10 15 7 18 -3 3 -9 -2 -12 -12z"/>
<path d="M4466 3304 c-3 -8 -2 -13 3 -9 5 3 12 -1 14 -7 3 -7 6 -3 6 10 1 25
-14 30 -23 6z"/>
<path d="M7395 3299 c-4 -6 -5 -12 -2 -15 2 -3 7 2 10 11 7 17 1 20 -8 4z"/>
<path d="M1678 3293 c6 -2 18 -2 25 0 6 3 1 5 -13 5 -14 0 -19 -2 -12 -5z"/>
<path d="M1741 3283 c10 -2 20 -14 23 -26 4 -18 8 -19 18 -9 11 11 9 16 -6 28
-11 8 -27 13 -35 13 -14 -1 -13 -2 0 -6z"/>
<path d="M4476 3233 c4 -24 3 -25 -5 -8 -9 18 -10 17 -8 -6 1 -20 5 -25 19
-21 14 3 17 10 12 26 -10 34 -22 40 -18 9z"/>
<path d="M1528 3238 c-36 -13 -35 -24 2 -32 30 -6 70 10 70 28 0 4 -11 1 -25
-8 -14 -9 -31 -14 -37 -10 -7 4 -2 12 13 20 28 16 16 17 -23 2z"/>
<path d="M7715 3228 c-4 -13 -13 -36 -20 -53 -7 -16 -23 -59 -35 -95 -13 -36
-28 -71 -33 -77 -12 -17 -14 -17 82 12 46 14 113 32 150 41 36 8 72 17 80 20
13 4 -192 174 -210 174 -4 0 -11 -10 -14 -22z"/>
<path d="M4428 3222 c-3 -11 0 -19 7 -19 7 0 10 8 7 19 -2 10 -6 18 -7 18 -1
0 -5 -8 -7 -18z"/>
<path d="M7526 3225 c-8 -8 -17 -15 -21 -15 -10 0 -65 -43 -65 -51 0 -4 12 -2
27 6 33 17 42 11 19 -14 -14 -15 -14 -20 -3 -29 17 -14 28 -6 20 16 -5 11 -2
14 10 9 11 -4 22 4 36 26 17 27 18 33 5 40 -8 5 -12 12 -9 18 9 14 -2 11 -19
-6z m8 -29 c-21 -15 -30 -14 -19 3 3 6 14 11 23 11 13 0 13 -2 -4 -14z"/>
<path d="M7340 3206 c0 -2 8 -10 18 -17 15 -13 16 -12 3 4 -13 16 -21 21 -21
13z"/>
<path d="M1414 3184 c-18 -14 -18 -15 6 -10 17 4 14 1 -10 -10 l-35 -17 35
-13 c19 -8 26 -13 15 -11 -18 3 -20 -1 -16 -40 1 -23 7 -43 11 -43 5 0 11 -19
13 -42 l4 -43 1 43 c1 30 6 42 17 42 12 0 15 16 15 80 0 71 -2 80 -18 80 -10
0 -27 -7 -38 -16z"/>
<path d="M1691 3179 c6 -12 5 -27 -3 -44 -8 -17 -8 -29 -1 -36 6 -6 13 -1 21
16 7 15 8 24 4 21 -5 -3 -9 8 -9 24 0 28 2 29 17 15 15 -14 18 -14 23 -1 4 10
1 13 -9 9 -7 -3 -14 0 -14 5 0 6 -9 10 -19 9 -15 -1 -17 -5 -10 -18z"/>
<path d="M7385 3180 c-3 -5 -1 -10 4 -10 6 0 11 5 11 10 0 6 -2 10 -4 10 -3 0
-8 -4 -11 -10z"/>
<path d="M4401 3154 c0 -11 3 -14 6 -6 3 7 2 16 -1 19 -3 4 -6 -2 -5 -13z"/>
<path d="M4450 3152 c0 -5 7 -13 16 -16 10 -4 14 -1 12 6 -5 15 -28 23 -28 10z"/>
<path d="M7313 3086 c-88 -61 -109 -81 -151 -146 -67 -104 -65 -100 -50 -95 7
3 69 21 137 40 68 19 125 36 126 37 5 6 46 230 43 233 -2 1 -49 -29 -105 -69z"/>
<path d="M7555 3150 c-3 -5 -3 -15 1 -22 4 -7 3 -8 -4 -4 -12 7 -67 -48 -67
-67 0 -7 10 -13 23 -13 27 -2 42 -15 25 -21 -18 -6 -16 -40 2 -47 18 -6 67 10
77 27 4 6 2 15 -5 19 -9 6 -9 8 1 8 6 0 12 8 12 18 0 14 -2 15 -10 2 -7 -11
-10 -4 -10 28 0 23 -5 42 -11 42 -5 0 -7 5 -4 10 3 6 -1 10 -10 10 -9 0 -13 5
-10 10 3 6 4 10 1 10 -3 0 -8 -4 -11 -10z m-41 -84 c-6 -15 -24 -23 -24 -11 0
8 24 34 28 30 1 -1 0 -10 -4 -19z m79 -56 c7 0 6 -4 -3 -10 -8 -5 -24 -9 -35
-9 -19 1 -19 2 -1 6 15 4 16 7 5 15 -11 8 -10 9 4 4 10 -3 24 -6 30 -6z"/>
<path d="M7325 3140 c-3 -6 1 -7 9 -4 18 7 21 14 7 14 -6 0 -13 -4 -16 -10z"/>
<path d="M7432 3113 c-2 -21 1 -24 10 -15 16 16 19 42 4 42 -6 0 -13 -12 -14
-27z"/>
<path d="M1260 3120 c0 -5 5 -10 11 -10 5 0 7 5 4 10 -3 6 -8 10 -11 10 -2 0
-4 -4 -4 -10z"/>
<path d="M4572 3110 c0 -14 2 -19 5 -12 2 6 2 18 0 25 -3 6 -5 1 -5 -13z"/>
<path d="M7280 3121 c0 -6 4 -13 10 -16 6 -3 7 1 4 9 -7 18 -14 21 -14 7z"/>
<path d="M7462 3094 c-7 -8 -8 -14 -3 -14 10 0 25 19 20 25 -2 1 -10 -3 -17
-11z"/>
<path d="M1182 3091 c-11 -7 -11 -9 0 -14 9 -3 15 1 15 9 0 8 -1 14 -1 14 -1
0 -7 -4 -14 -9z"/>
<path d="M7420 3072 c0 -4 4 -13 9 -20 7 -11 9 -11 14 1 3 9 -1 18 -9 21 -8 3
-14 2 -14 -2z"/>
<path d="M1079 3049 c-10 -6 -7 -9 13 -9 15 0 29 4 32 8 7 11 -27 12 -45 1z"/>
<path d="M1150 3050 c-18 -12 -2 -12 25 0 13 6 15 9 5 9 -8 0 -22 -4 -30 -9z"/>
<path d="M4580 3051 c0 -6 4 -13 10 -16 6 -3 7 1 4 9 -7 18 -14 21 -14 7z"/>
<path d="M1612 3010 c-7 -18 -10 -35 -8 -37 2 -3 7 5 11 17 4 13 12 19 21 16
8 -3 18 4 24 17 10 19 9 20 -2 5 -13 -15 -15 -15 -24 0 -9 14 -12 11 -22 -18z"/>
<path d="M5090 2960 c-167 -116 -190 -133 -190 -142 0 -4 -5 -8 -11 -8 -14 0
-139 -92 -139 -102 0 -5 -7 -8 -15 -8 -8 0 -15 -7 -15 -16 0 -10 6 -14 14 -11
11 5 13 -1 9 -28 -3 -20 1 -45 11 -65 8 -18 13 -37 9 -43 -4 -6 -1 -7 7 -2 10
6 12 1 8 -20 -3 -15 0 -43 7 -63 7 -21 18 -55 23 -77 42 -159 47 -175 55 -157
4 10 6 5 2 -15 -3 -21 8 -78 29 -150 28 -101 73 -265 80 -298 2 -5 8 22 15 60
31 171 61 341 86 474 14 79 24 156 20 170 -3 15 -2 21 3 14 4 -7 17 42 31 120
12 73 34 192 48 266 13 73 22 139 19 146 -2 7 1 18 7 24 25 25 -5 7 -113 -69z
m-319 -351 c-5 -13 -10 -19 -10 -12 -1 15 10 45 15 40 3 -2 0 -15 -5 -28z m26
-121 c-3 -7 -5 -2 -5 12 0 14 2 19 5 13 2 -7 2 -19 0 -25z m53 -125 c0 -57
-15 -68 -16 -12 0 27 3 49 8 49 4 0 8 -17 8 -37z m17 -85 c-3 -8 -6 -5 -6 6
-1 11 2 17 5 13 3 -3 4 -12 1 -19z m53 -208 c0 -5 -4 -10 -10 -10 -5 0 -10 5
-10 10 0 6 5 10 10 10 6 0 10 -4 10 -10z"/>
<path d="M5246 3015 c8 -37 14 -45 14 -19 0 10 -5 26 -10 34 -8 11 -9 7 -4
-15z"/>
<path d="M1010 3020 c-8 -5 -10 -10 -5 -10 6 0 17 5 25 10 8 5 11 10 5 10 -5
0 -17 -5 -25 -10z"/>
<path d="M586 2991 l-29 -30 33 -40 c36 -47 31 -45 65 -29 18 8 22 14 13 20
-9 5 -7 8 7 8 16 0 17 2 5 10 -9 5 -19 5 -26 -1 -8 -6 -14 -4 -18 6 -3 10 -11
13 -18 9 -7 -4 -10 -4 -6 0 4 5 3 18 -2 31 -5 14 -5 26 3 34 6 6 9 11 6 11 -3
0 -18 -13 -33 -29z"/>
<path d="M7431 3004 c0 -11 3 -14 6 -6 3 7 2 16 -1 19 -3 4 -6 -2 -5 -13z"/>
<path d="M953 2995 c-18 -8 -33 -17 -33 -20 0 -3 8 -1 19 4 10 6 21 8 23 5 3
-2 11 2 18 11 15 18 14 18 -27 0z"/>
<path d="M625 2978 c1 -12 7 -23 14 -24 6 -1 7 0 2 2 -6 3 -8 11 -5 19 3 7 1
15 -4 19 -5 3 -8 -5 -7 -16z"/>
<path d="M1005 2990 c3 -5 11 -10 16 -10 6 0 7 5 4 10 -3 6 -11 10 -16 10 -6
0 -7 -4 -4 -10z"/>
<path d="M4573 2985 c-3 -9 -3 -18 -1 -21 3 -3 8 4 11 16 6 23 -1 27 -10 5z"/>
<path d="M5295 2980 c-3 -5 -2 -10 4 -10 5 0 13 5 16 10 3 6 2 10 -4 10 -5 0
-13 -4 -16 -10z"/>
<path d="M7406 2964 c-3 -9 -6 -18 -6 -20 0 -7 45 -3 65 7 15 7 12 8 -17 5
-29 -4 -36 -1 -31 10 3 8 3 14 0 14 -3 0 -8 -7 -11 -16z"/>
<path d="M7128 2957 c-7 -8 -24 -19 -36 -26 -20 -11 -21 -15 -10 -29 12 -15
11 -16 -5 -3 -23 18 -45 0 -22 -19 8 -7 15 -17 15 -22 0 -6 -8 0 -18 12 l-18
23 -45 -33 c-24 -17 -43 -36 -42 -41 2 -4 -3 -6 -11 -3 -7 3 -19 -3 -27 -12
-13 -16 -12 -17 11 -10 14 4 34 9 45 11 67 16 111 34 120 51 6 10 23 39 38 62
29 44 31 65 5 39z"/>
<path d="M690 2950 c-8 -5 -10 -10 -5 -10 6 0 17 5 25 10 8 5 11 10 5 10 -5 0
-17 -5 -25 -10z"/>
<path d="M1223 2920 c0 -25 2 -35 4 -22 2 12 2 32 0 45 -2 12 -4 2 -4 -23z"/>
<path d="M728 2933 c7 -3 16 -2 19 1 4 3 -2 6 -13 5 -11 0 -14 -3 -6 -6z"/>
<path d="M5201 2870 c-14 -83 -62 -348 -91 -510 -81 -444 -112 -631 -106 -637
4 -4 16 -2 26 5 11 7 34 12 52 13 27 0 29 2 13 8 -16 7 -14 9 16 15 20 3 43 4
52 1 21 -8 99 14 92 25 -4 6 -1 10 6 10 7 0 5 8 -7 22 -15 16 -15 20 -3 16 18
-7 18 -55 -6 582 -9 234 -20 448 -23 475 l-8 50 -13 -75z m3 -1085 c-7 -17
-20 -20 -28 -6 -7 10 3 21 20 21 8 0 11 -6 8 -15z"/>
<path d="M5405 2910 c3 -5 8 -10 11 -10 2 0 4 5 4 10 0 6 -5 10 -11 10 -5 0
-7 -4 -4 -10z"/>
<path d="M1520 2896 c0 -8 6 -16 14 -19 10 -4 12 0 9 14 -6 22 -23 26 -23 5z"/>
<path d="M487 2886 c-18 -14 -17 -15 3 -21 12 -4 24 -4 27 -1 4 3 -2 6 -12 6
-14 0 -15 3 -5 15 15 18 11 19 -13 1z"/>
<path d="M1527 2854 c-4 -4 -7 -14 -7 -23 0 -11 3 -12 11 -4 6 6 10 16 7 23
-2 6 -7 8 -11 4z"/>
<path d="M1553 2839 c-2 -23 3 -25 10 -4 4 8 3 16 -1 19 -4 3 -9 -4 -9 -15z"/>
<path d="M429 2823 c-13 -16 -12 -17 4 -4 16 13 21 21 13 21 -2 0 -10 -8 -17
-17z"/>
<path d="M466 2831 c-4 -5 3 -7 14 -4 23 6 26 13 6 13 -8 0 -17 -4 -20 -9z"/>
<path d="M4691 2794 c0 -11 3 -14 6 -6 3 7 2 16 -1 19 -3 4 -6 -2 -5 -13z"/>
<path d="M1492 2775 c13 -29 23 -32 32 -9 9 22 8 24 -9 18 -8 -4 -15 -1 -15 5
0 6 -4 11 -10 11 -6 0 -5 -10 2 -25z"/>
<path d="M4715 2739 c-10 -15 3 -25 16 -12 7 7 7 13 1 17 -6 3 -14 1 -17 -5z"/>
<path d="M788 2730 c-3 -8 -1 -24 5 -35 8 -17 5 -16 -18 5 -18 16 -10 0 24
-47 29 -40 53 -73 54 -73 1 0 3 11 3 25 1 14 -1 23 -5 21 -4 -3 -13 0 -21 5
-11 7 -7 8 13 5 36 -6 48 19 18 40 -11 8 -21 22 -21 30 0 8 -9 14 -19 14 -11
0 -21 6 -23 13 -3 8 -6 8 -10 -3z"/>
<path d="M340 2687 c0 -32 -53 -914 -65 -1074 l-6 -83 120 78 c67 42 204 131
305 197 102 66 251 162 331 214 l145 94 -57 44 c-32 25 -130 98 -218 163 -88
65 -245 182 -350 259 -104 77 -193 141 -197 141 -5 0 -8 -15 -8 -33z"/>
<path d="M1456 2707 c3 -10 9 -15 12 -12 3 3 0 11 -7 18 -10 9 -11 8 -5 -6z"/>
<path d="M4675 2660 c-10 -11 -13 -20 -7 -20 6 0 13 6 15 13 10 22 27 -15 27
-58 0 -26 3 -35 9 -26 5 7 4 29 -1 50 -5 20 -10 42 -10 49 -2 17 -12 15 -33
-8z"/>
<path d="M880 2626 c0 -8 -4 -16 -10 -18 -13 -4 4 -64 18 -61 7 2 9 -4 5 -14
-5 -12 -2 -15 10 -10 12 4 14 2 10 -10 -5 -13 -2 -15 11 -10 14 6 17 3 12 -8
-3 -9 -2 -13 4 -10 6 3 10 -1 10 -9 0 -9 6 -13 14 -10 16 6 56 -12 68 -30 5
-6 8 -1 8 12 0 12 -4 22 -10 22 -5 0 -10 7 -10 15 0 8 -9 19 -20 25 -11 6 -20
19 -20 30 0 10 -9 21 -19 25 -11 3 -26 21 -36 40 -16 35 -45 48 -45 21z m64
-92 c3 -8 2 -12 -4 -9 -6 3 -10 10 -10 16 0 14 7 11 14 -7z m23 -46 c-3 -8 -6
-5 -6 6 -1 11 2 17 5 13 3 -3 4 -12 1 -19z"/>
<path d="M4599 2603 c-13 -16 -12 -17 3 -5 9 8 23 10 29 6 8 -4 9 -3 5 4 -10
17 -21 15 -37 -5z"/>
<path d="M4610 2586 c0 -2 7 -7 16 -10 8 -3 12 -2 9 4 -6 10 -25 14 -25 6z"/>
<path d="M4535 2560 c-3 -5 -2 -10 4 -10 5 0 13 5 16 10 3 6 2 10 -4 10 -5 0
-13 -4 -16 -10z"/>
<path d="M1375 2549 c-4 -6 -5 -12 -2 -15 2 -3 7 2 10 11 7 17 1 20 -8 4z"/>
<path d="M4726 2538 c-9 -40 -1 -131 10 -135 16 -5 26 42 18 85 -7 35 -8 36
-16 12 -5 -18 -6 -12 -3 18 5 44 -1 58 -9 20z m15 -111 c-8 -8 -11 -5 -11 9 0
27 14 41 18 19 2 -9 -1 -22 -7 -28z"/>
<path d="M990 2410 c0 -5 5 -10 11 -10 5 0 7 5 4 10 -3 6 -8 10 -11 10 -2 0
-4 -4 -4 -10z"/>
<path d="M1029 2417 c-1 -4 -2 -10 -3 -14 -1 -5 -5 -14 -9 -20 -5 -7 -4 -13 2
-13 11 0 25 39 17 47 -3 4 -7 3 -7 0z"/>
<path d="M4761 2393 c0 -5 4 -17 9 -28 8 -18 9 -17 9 8 1 15 -3 27 -9 27 -5 0
-10 -3 -9 -7z"/>
<path d="M4730 2353 c0 -18 5 -33 10 -33 13 0 13 30 0 50 -7 11 -10 7 -10 -17z"/>
<path d="M7005 2350 c-3 -5 -1 -10 4 -10 6 0 11 5 11 10 0 6 -2 10 -4 10 -3 0
-8 -4 -11 -10z"/>
<path d="M1151 2334 c0 -11 3 -14 6 -6 3 7 2 16 -1 19 -3 4 -6 -2 -5 -13z"/>
<path d="M1090 2301 c0 -7 -5 -9 -12 -5 -7 5 -8 3 -3 -5 5 -9 10 -10 18 -2 6
6 8 14 4 18 -4 3 -7 1 -7 -6z"/>
<path d="M1220 2235 c-7 -9 -10 -18 -6 -22 3 -3 6 -1 6 6 0 7 5 9 12 5 6 -4 8
-3 4 4 -3 5 0 13 6 15 8 4 9 6 2 6 -6 1 -17 -6 -24 -14z"/>
<path d="M1159 2223 c8 -16 8 -22 -1 -25 -8 -3 -9 -6 -1 -11 18 -11 23 19 7
40 -14 17 -14 17 -5 -4z"/>
<path d="M4817 2233 c-3 -5 -8 -23 -12 -40 -6 -30 -10 -33 -46 -33 l-39 0 0
-80 0 -80 -40 0 -40 0 0 -40 c0 -41 -4 -44 -47 -41 -11 1 -23 -2 -26 -6 -3 -5
11 -8 32 -8 29 0 37 -4 38 -17 2 -20 -13 -25 -19 -6 -3 7 -15 13 -29 13 -13 1
-34 5 -46 8 -56 17 -63 18 -63 10 0 -13 96 -44 116 -36 11 4 15 3 11 -5 -8
-12 193 -94 230 -94 13 0 20 -5 16 -11 -4 -6 0 -8 10 -4 10 3 17 2 17 -2 0 -5
20 -16 44 -24 l45 -15 -10 26 c-10 27 -23 71 -60 211 -10 41 -21 76 -23 79 -9
9 -46 -10 -46 -24 0 -8 -7 -14 -15 -14 -20 0 -19 37 1 85 8 21 12 45 9 54 -6
14 -8 13 -15 -4 -8 -19 -9 -19 -9 2 -1 12 3 24 8 28 14 8 34 -33 28 -61 -5
-27 8 -33 17 -8 4 9 -3 33 -15 52 -14 24 -19 45 -15 64 5 27 2 36 -7 21z m73
-334 c-7 -30 -7 -28 -8 21 0 38 3 48 8 34 5 -11 5 -36 0 -55z m29 -49 c0 -10
-3 -8 -9 5 -12 27 -12 43 0 25 5 -8 9 -22 9 -30z m-22 -22 c-3 -7 -5 -2 -5 12
0 14 2 19 5 13 2 -7 2 -19 0 -25z m-127 2 c-8 -5 -22 -10 -30 -10 -13 0 -13 1
0 10 8 5 22 10 30 10 13 0 13 -1 0 -10z m76 -28 c-10 -10 -19 -10 -47 2 l-34
14 47 -1 c38 -2 45 -4 34 -15z m91 -41 c-1 -12 -7 -17 -19 -13 -10 2 -18 8
-18 13 0 5 7 6 15 3 8 -4 15 -1 15 5 0 6 2 11 4 11 3 0 4 -8 3 -19z"/>
<path d="M1125 2220 c3 -5 8 -10 11 -10 2 0 4 5 4 10 0 6 -5 10 -11 10 -5 0
-7 -4 -4 -10z"/>
<path d="M1160 2082 c-14 -10 -164 -108 -335 -217 -383 -245 -479 -307 -485
-316 -3 -3 -12 -9 -20 -12 -20 -9 76 -2 410 29 151 13 345 31 430 39 190 17
570 54 588 58 7 1 -11 20 -40 42 -47 35 -170 130 -410 315 -43 33 -78 55 -78
49 0 -6 -8 -1 -18 11 -17 21 -18 21 -42 2z m84 -72 l7 -25 -15 25 c-17 28 -21
50 -7 35 5 -6 12 -21 15 -35z m55 -125 c0 -5 -11 10 -24 35 -13 25 -24 50 -24
55 0 6 11 -10 24 -35 13 -25 24 -49 24 -55z m68 -162 c-5 -4 -67 133 -66 145
0 4 16 -26 35 -67 19 -40 33 -75 31 -78z"/>
<path d="M4185 2020 c3 -5 11 -10 16 -10 6 0 7 5 4 10 -3 6 -11 10 -16 10 -6
0 -7 -4 -4 -10z"/>
<path d="M4458 1983 c7 -3 16 -2 19 1 4 3 -2 6 -13 5 -11 0 -14 -3 -6 -6z"/>
<path d="M4300 1976 c0 -2 7 -6 15 -10 8 -3 15 -1 15 4 0 6 -7 10 -15 10 -8 0
-15 -2 -15 -4z"/>
<path d="M4379 1967 c7 -7 14 -8 21 -1 6 6 2 10 -12 11 -16 2 -18 -1 -9 -10z"/>
<path d="M4455 1950 c3 -5 10 -10 16 -10 5 0 9 5 9 10 0 6 -7 10 -16 10 -8 0
-12 -4 -9 -10z"/>
<path d="M4410 1943 c8 -4 21 -12 28 -20 7 -7 19 -13 25 -13 7 0 1 9 -13 20
-14 11 -32 19 -40 19 -13 -1 -13 -1 0 -6z"/>
<path d="M5720 1910 c12 -9 10 -11 -12 -7 -15 2 -29 -1 -31 -8 -4 -8 11 -9 57
-3 76 10 92 16 44 17 -20 1 -45 4 -55 7 -15 5 -16 4 -3 -6z"/>
<path d="M5628 1893 c7 -3 16 -2 19 1 4 3 -2 6 -13 5 -11 0 -14 -3 -6 -6z"/>
<path d="M5600 1870 l-45 -7 40 -1 c22 -1 47 3 55 8 8 5 11 9 5 8 -5 0 -30 -4
-55 -8z"/>
<path d="M5245 1755 c-5 -2 -63 -16 -127 -30 l-117 -27 92 -110 c51 -61 112
-137 137 -169 25 -32 47 -59 50 -59 7 0 3 193 -6 318 -3 45 -9 82 -12 81 -4 0
-11 -2 -17 -4z"/>
<path d="M4744 1651 c10 -15 56 -22 74 -11 15 10 14 10 -4 5 -12 -3 -33 -1
-48 5 -15 5 -25 6 -22 1z"/>
<path d="M1650 1632 c-14 -1 -68 -6 -120 -10 -104 -8 -104 -8 -78 -71 6 -14
12 -28 13 -31 1 -3 14 -31 28 -63 l27 -58 43 44 c23 24 60 64 82 88 22 24 57
59 78 77 l39 33 -44 -3 c-23 -1 -54 -4 -68 -6z"/>
<path d="M4836 1625 c-11 -8 -16 -18 -12 -22 3 -4 16 3 29 15 24 25 12 29 -17
7z"/>
<path d="M1928 1623 c7 -3 16 -2 19 1 4 3 -2 6 -13 5 -11 0 -14 -3 -6 -6z"/>
<path d="M4643 1600 c1 -21 10 -18 13 5 1 8 -2 15 -6 15 -5 0 -8 -9 -7 -20z"/>
<path d="M4713 1605 c0 -8 4 -15 9 -15 4 0 8 4 8 9 0 5 8 12 18 14 11 3 8 5
-9 6 -17 1 -26 -4 -26 -14z"/>
<path d="M1215 1594 c-71 -7 -203 -20 -293 -28 -89 -8 -239 -23 -332 -32
l-170 -18 0 -37 c0 -21 7 -45 16 -54 15 -15 15 -17 -2 -30 -18 -14 -18 -14 1
-15 11 -1 14 -4 7 -7 -18 -7 -4 -23 16 -17 14 5 14 4 3 -4 -8 -6 -21 -8 -29
-4 -9 3 -1 -15 18 -43 23 -34 27 -44 13 -34 -38 27 -93 78 -93 87 0 5 -8 18
-18 29 -9 11 -28 34 -41 52 -13 17 -26 30 -27 28 -2 -2 5 -39 16 -83 10 -44
30 -136 44 -205 14 -68 37 -176 51 -239 15 -63 35 -155 45 -205 11 -49 24
-108 29 -130 6 -22 18 -82 27 -132 9 -51 20 -93 23 -93 3 0 119 -7 256 -15
337 -20 358 -18 165 16 -91 16 -178 27 -193 24 -16 -3 -25 -1 -22 4 3 6 -5 12
-17 14 -13 2 -4 2 20 0 81 -8 197 17 135 29 -10 2 16 3 57 4 86 0 200 14 200
24 0 4 -9 18 -21 31 -11 13 -24 30 -28 37 -4 7 -18 14 -30 17 -13 2 -26 7 -30
11 -3 4 2 4 12 1 25 -9 21 3 -13 40 -20 22 -35 31 -47 27 -14 -5 -15 -4 -4 4
11 8 7 18 -23 55 l-36 45 -86 -86 c-64 -64 -82 -87 -72 -95 10 -7 9 -8 -3 -4
-9 3 -22 0 -28 -6 -6 -6 -13 -8 -16 -5 -3 3 40 49 95 103 55 55 100 102 100
106 0 6 -138 170 -212 253 -10 11 -15 22 -12 25 3 3 15 -5 26 -19 88 -110 201
-240 208 -240 4 0 55 49 113 110 79 80 105 114 101 127 -4 14 -3 15 4 4 7 -10
22 -2 68 40 43 38 323 319 324 325 0 0 -22 49 -50 110 -58 128 -39 120 -245
98z m-724 -204 c20 -11 26 -30 8 -30 -11 0 -39 24 -39 34 0 9 9 7 31 -4z m38
-194 c-3 -3 -11 5 -18 17 -13 21 -12 21 5 5 10 -10 16 -20 13 -22z m86 -96
l20 -25 -22 19 c-13 11 -23 24 -23 29 0 6 1 8 3 6 1 -2 11 -15 22 -29z m425
-40 c0 -5 -2 -10 -4 -10 -3 0 -8 5 -11 10 -3 6 -1 10 4 10 6 0 11 -4 11 -10z
m-45 -480 c4 -6 -30 -9 -97 -8 l-103 2 95 6 c52 3 96 7 97 8 1 1 5 -2 8 -8z
m-319 -55 c-8 -8 -20 -15 -27 -15 -7 0 -4 6 7 15 25 19 40 19 20 0z m-79 -81
c-3 -3 -12 -4 -19 -1 -8 3 -5 6 6 6 11 1 17 -2 13 -5z m56 -11 c-7 -2 -19 -2
-25 0 -7 3 -2 5 12 5 14 0 19 -2 13 -5z m14 -39 c-3 -3 -12 -4 -19 -1 -8 3 -5
6 6 6 11 1 17 -2 13 -5z"/>
<path d="M4750 1583 c-14 -10 -33 -19 -44 -20 -10 -2 -44 -16 -75 -32 -31 -16
-65 -32 -76 -35 -16 -6 -17 -9 -5 -17 11 -7 6 -8 -14 -3 -18 4 -27 3 -23 -3 3
-5 -4 -9 -16 -9 -12 1 -21 -3 -20 -9 1 -5 -11 -10 -26 -11 -15 0 -74 -23 -132
-51 -57 -27 -118 -56 -136 -63 -17 -8 -29 -18 -27 -22 3 -4 -3 -5 -12 -1 -12
4 -15 3 -10 -5 4 -7 2 -10 -7 -7 -13 6 -200 -76 -210 -92 -10 -16 -17 -189
-11 -260 l7 -71 96 77 c53 43 128 103 167 132 56 43 177 139 287 229 7 6 32
26 57 46 25 21 44 41 42 46 -1 5 2 7 7 4 7 -5 33 11 78 49 7 5 30 24 52 40 22
17 38 35 36 41 -4 13 14 34 29 34 5 0 1 -7 -10 -15 -10 -8 -15 -15 -11 -15 4
0 21 10 37 22 22 16 27 24 18 30 -18 11 -20 10 -48 -9z m-62 -52 c11 -7 10 -9
-3 -15 -9 -3 -13 -10 -10 -16 10 -16 -11 -12 -25 5 -11 13 -10 14 5 8 14 -5
17 -3 12 10 -7 19 1 21 21 8z m-78 -71 c0 -5 -6 -10 -14 -10 -8 0 -18 5 -21
10 -3 6 3 10 14 10 12 0 21 -4 21 -10z"/>
<path d="M2829 1502 c-19 -20 -154 -152 -299 -292 -145 -140 -350 -339 -454
-442 l-191 -187 -310 -127 -309 -126 -371 20 -370 20 -262 -131 -263 -132 0
-52 0 -53 2770 0 c1524 0 2770 2 2770 6 0 3 -56 79 -125 170 -69 91 -125 172
-125 179 0 13 -44 200 -165 708 -23 98 -44 180 -47 182 -4 5 -67 -16 -618
-205 -228 -78 -442 -151 -475 -162 -32 -10 -62 -24 -66 -29 -4 -8 -35 -1 -90
19 -46 16 -152 53 -235 82 l-152 52 -148 -41 c-82 -23 -184 -51 -227 -63 -42
-11 -80 -19 -82 -16 -3 3 59 22 137 43 79 20 161 43 183 50 22 7 57 16 78 20
20 4 37 11 37 15 0 10 -269 263 -289 272 -9 4 -13 7 -9 7 4 1 -19 25 -50 54
-31 28 -70 66 -87 83 -16 17 -51 50 -76 72 l-45 41 -35 -37z m86 -643 c-33
-10 -67 -18 -75 -16 -8 2 12 10 45 19 83 22 103 20 30 -3z m-165 -44 c-19 -7
-42 -13 -50 -13 -8 0 1 6 20 13 19 7 42 13 50 13 8 0 -1 -6 -20 -13z m-115
-29 c-62 -20 -101 -28 -93 -21 8 8 97 33 118 33 8 0 -3 -6 -25 -12z m1495 -16
c8 -5 11 -10 5 -10 -5 0 -17 5 -25 10 -8 5 -10 10 -5 10 6 0 17 -5 25 -10z
m-1603 -16 c-3 -3 -12 -4 -19 -1 -8 3 -5 6 6 6 11 1 17 -2 13 -5z m1683 -14
c8 -5 11 -10 5 -10 -5 0 -17 5 -25 10 -8 5 -10 10 -5 10 6 0 17 -5 25 -10z
m-1873 -36 c-3 -3 -12 -4 -19 -1 -8 3 -5 6 6 6 11 1 17 -2 13 -5z m-80 -20
c-3 -3 -12 -4 -19 -1 -8 3 -5 6 6 6 11 1 17 -2 13 -5z m-87 -24 c-8 -5 -19
-10 -25 -10 -5 0 -3 5 5 10 8 5 20 10 25 10 6 0 3 -5 -5 -10z m2315 -20 c3 -6
-1 -7 -9 -4 -18 7 -21 14 -7 14 6 0 13 -4 16 -10z m245 -90 c8 -5 11 -10 5
-10 -5 0 -17 5 -25 10 -8 5 -10 10 -5 10 6 0 17 -5 25 -10z m160 -60 c8 -5 11
-10 5 -10 -5 0 -17 5 -25 10 -8 5 -10 10 -5 10 6 0 17 -5 25 -10z"/>
<path d="M4098 1523 c12 -2 32 -2 45 0 12 2 2 4 -23 4 -25 0 -35 -2 -22 -4z"/>
<path d="M360 1500 c0 -13 11 -13 30 0 12 8 11 10 -7 10 -13 0 -23 -4 -23 -10z"/>
<path d="M4475 1500 c-13 -5 -14 -9 -5 -9 8 0 24 4 35 9 13 5 14 9 5 9 -8 0
-24 -4 -35 -9z"/>
<path d="M310 1496 c0 -2 9 -6 20 -9 11 -3 18 -1 14 4 -5 9 -34 13 -34 5z"/>
<path d="M381 1476 c-16 -19 -11 -29 8 -17 7 5 12 14 9 21 -3 9 -8 7 -17 -4z"/>
<path d="M1635 1440 c-3 -6 1 -7 9 -4 18 7 21 14 7 14 -6 0 -13 -4 -16 -10z"/>
<path d="M3090 1363 c51 -48 116 -109 143 -135 32 -29 55 -44 65 -40 11 4 14
1 9 -11 -4 -12 11 -31 55 -69 33 -29 65 -52 70 -50 5 1 7 -2 4 -7 -4 -5 -2
-12 4 -16 5 -3 10 3 10 14 0 11 4 22 9 25 5 3 11 17 13 31 3 13 2 22 -2 20 -5
-3 -11 2 -14 11 -4 10 -13 13 -27 9 -13 -5 -19 -3 -15 3 3 5 -10 22 -29 36
-19 15 -35 22 -35 17 0 -17 -27 -13 -34 5 -4 9 -13 14 -22 10 -8 -3 -13 -2
-10 3 3 5 -1 12 -10 15 -12 5 -15 2 -10 -10 5 -14 4 -15 -9 -4 -10 9 -12 17
-6 23 6 6 23 2 47 -12 55 -33 52 -18 -3 17 -26 17 -68 45 -93 63 -25 17 -81
56 -125 86 l-80 55 95 -89z m104 -68 c24 -19 45 -34 47 -32 2 1 1 -2 -3 -7 -5
-6 -24 5 -45 24 -21 19 -42 38 -47 42 -6 5 -6 8 -2 8 4 0 27 -16 50 -35z m214
-141 c2 -1 -8 -1 -22 0 -18 1 -26 7 -26 20 0 19 0 19 23 0 12 -10 23 -20 25
-20z m-67 -1 c13 -16 12 -17 -3 -4 -10 7 -18 15 -18 17 0 8 8 3 21 -13z m109
-33 c0 -4 -7 -11 -16 -14 -8 -3 -12 -2 -9 4 3 6 2 10 -3 10 -19 0 -21 -14 -5
-32 20 -23 10 -24 -17 -1 -19 17 -19 17 7 34 26 17 43 17 43 -1z"/>
<path d="M1823 1400 c0 -25 2 -35 4 -22 2 12 2 32 0 45 -2 12 -4 2 -4 -23z"/>
<path d="M4050 1400 c0 -34 -4 -41 -25 -46 -28 -7 -33 -29 -9 -38 8 -3 12 -10
9 -16 -4 -6 -10 -8 -15 -5 -4 3 -10 -2 -14 -10 -7 -20 18 -20 38 0 8 8 24 15
36 15 13 0 19 4 14 12 -4 6 -3 8 3 5 14 -9 123 44 123 60 0 6 13 11 28 11 16
-1 37 4 48 11 17 11 16 12 -11 8 -26 -5 -28 -4 -12 8 16 12 16 13 -5 19 -40
10 -68 7 -68 -9 0 -8 -7 -15 -15 -15 -8 0 -15 7 -15 15 0 12 -13 15 -55 15
l-55 0 0 -40z m35 -60 c3 -5 1 -10 -4 -10 -6 0 -11 5 -11 10 0 6 2 10 4 10 3
0 8 -4 11 -10z"/>
<path d="M4328 1433 c6 -2 18 -2 25 0 6 3 1 5 -13 5 -14 0 -19 -2 -12 -5z"/>
<path d="M1662 1408 c-7 -7 -12 -16 -12 -21 0 -5 7 -1 16 8 9 9 14 18 12 20
-2 3 -10 -1 -16 -7z"/>
<path d="M1555 1391 c4 -8 2 -17 -6 -22 -9 -6 -10 -9 -2 -9 19 0 27 21 13 33
-10 9 -11 9 -5 -2z"/>
<path d="M1584 1373 c-6 -10 -8 -27 -3 -38 5 -14 8 -15 9 -5 1 8 3 25 6 38 5
27 2 28 -12 5z"/>
<path d="M1497 1342 c-15 -17 -15 -19 2 -34 18 -15 19 -14 18 18 -1 19 -2 34
-2 34 -1 0 -9 -8 -18 -18z"/>
<path d="M3912 1298 c-1 -38 0 -68 3 -68 4 0 19 7 36 15 33 17 30 36 -4 34
-20 -1 -20 -2 3 -8 20 -6 22 -8 8 -13 -23 -9 -36 10 -41 62 -3 35 -4 30 -5
-22z"/>
<path d="M1622 1300 c0 -14 2 -19 5 -12 2 6 2 18 0 25 -3 6 -5 1 -5 -13z"/>
<path d="M1427 1273 c-20 -21 -47 -47 -61 -58 -13 -10 -22 -24 -19 -29 4 -5
-1 -7 -11 -3 -13 5 -17 3 -13 -7 4 -9 -1 -18 -11 -21 -9 -4 -35 -27 -56 -51
-30 -34 -36 -48 -28 -56 7 -7 12 -28 12 -47 0 -41 13 -67 28 -57 6 3 12 2 14
-3 4 -13 168 -106 173 -99 1 2 12 32 25 68 13 36 26 70 30 75 4 6 15 34 26 63
15 43 16 57 6 72 -15 24 -15 33 -2 25 5 -3 9 2 8 12 0 10 0 27 1 38 1 19 3 18
21 -5 18 -24 19 -24 17 -3 0 12 -4 20 -8 17 -4 -2 -12 4 -18 13 -9 16 -11 16
-20 -7 -7 -18 -10 -20 -10 -7 -1 10 5 30 13 45 11 22 12 31 2 45 -12 15 -13
13 -14 -14 -1 -35 -12 -54 -12 -21 0 12 -5 22 -12 22 -6 0 -19 7 -28 15 -15
14 -20 11 -53 -22z m-76 -130 c-12 -20 -14 -14 -5 12 4 9 9 14 11 11 3 -2 0
-13 -6 -23z m159 -113 c0 -5 -4 -10 -10 -10 -5 0 -10 5 -10 10 0 6 5 10 10 10
6 0 10 -4 10 -10z m-36 -86 c3 -8 2 -12 -4 -9 -6 3 -10 10 -10 16 0 14 7 11
14 -7z"/>
<path d="M5248 1303 c-15 -4 -15 -8 -5 -26 28 -49 37 -51 37 -8 0 23 -3 40 -7
40 -5 -1 -16 -3 -25 -6z"/>
<path d="M5145 1265 l-30 -14 28 -1 c16 0 35 7 43 15 20 19 1 19 -41 0z"/>
<path d="M2520 1250 c-8 -5 -12 -12 -9 -15 4 -3 12 1 19 10 14 17 11 19 -10 5z"/>
<path d="M4955 1240 c-3 -6 1 -7 9 -4 18 7 21 14 7 14 -6 0 -13 -4 -16 -10z"/>
<path d="M5193 1221 c1 -16 5 -27 10 -24 10 6 9 53 -3 53 -5 0 -8 -13 -7 -29z"/>
<path d="M5117 1200 c3 -19 9 -42 13 -50 4 -8 11 -35 15 -60 3 -25 10 -58 15
-75 4 -16 15 -66 25 -110 9 -44 32 -141 50 -215 18 -74 38 -155 44 -180 8 -35
9 13 6 205 -3 138 -6 304 -7 370 l-2 120 -6 -85 c-3 -47 -7 -66 -8 -42 -2 38
-5 42 -27 42 -22 0 -25 -4 -25 -40 0 -22 -4 -40 -8 -40 -5 0 -14 -10 -19 -22
-9 -20 -12 -12 -23 51 -9 55 -9 75 -1 81 7 3 9 15 5 24 -4 11 -1 22 7 27 10 6
5 9 -18 9 -17 0 -34 6 -36 13 -3 6 -3 -4 0 -23z m33 -21 c0 -11 -4 -17 -10
-14 -5 3 -10 13 -10 21 0 8 5 14 10 14 6 0 10 -9 10 -21z m47 -251 c-3 -7 -5
-2 -5 12 0 14 2 19 5 13 2 -7 2 -19 0 -25z m60 -230 c-3 -8 -6 -5 -6 6 -1 11
2 17 5 13 3 -3 4 -12 1 -19z"/>
<path d="M2476 1203 c-6 -14 -5 -15 5 -6 7 7 10 15 7 18 -3 3 -9 -2 -12 -12z"/>
<path d="M2431 1160 c-13 -11 -19 -20 -14 -20 6 0 18 9 28 20 23 25 17 25 -14
0z"/>
<path d="M1560 1161 c0 -5 -3 -16 -6 -25 -3 -9 -2 -16 4 -16 13 0 23 38 11 46
-5 3 -9 1 -9 -5z"/>
<path d="M108 1144 c-5 -4 -8 -18 -8 -31 0 -12 -4 -23 -10 -23 -5 0 -10 -7
-10 -16 0 -12 6 -10 21 10 18 23 25 79 7 60z"/>
<path d="M4640 1130 c0 -5 7 -7 15 -4 8 4 15 8 15 10 0 2 -7 4 -15 4 -8 0 -15
-4 -15 -10z"/>
<path d="M314 1122 c-6 -4 -13 -15 -17 -24 -3 -10 -13 -18 -22 -18 -8 0 -15
-9 -15 -20 0 -11 -4 -20 -10 -20 -5 0 -10 -6 -10 -14 0 -8 -10 -16 -22 -18
-15 -2 -24 -11 -26 -25 -2 -13 -10 -23 -18 -23 -8 0 -14 -6 -14 -14 0 -8 -9
-17 -19 -21 -11 -3 -23 -15 -26 -26 -7 -21 -31 -26 -38 -6 -2 6 -2 0 0 -15 3
-22 0 -27 -19 -30 -15 -2 -24 -11 -26 -25 -2 -13 -10 -23 -18 -23 -18 0 -20
-86 -1 -93 9 -4 9 -6 0 -6 -9 -1 -13 -24 -13 -79 l0 -79 88 -12 c48 -7 151
-24 230 -37 79 -13 147 -24 152 -24 4 0 3 21 -4 47 l-12 47 -105 34 c-57 19
-142 44 -189 57 -132 36 -138 40 -63 41 37 0 58 -2 48 -6 -17 -6 -15 -8 9 -14
16 -4 31 -5 34 -1 3 3 -3 5 -14 6 -18 0 -18 1 1 9 17 7 17 9 3 9 -12 1 -18 9
-18 26 0 23 4 25 40 25 36 0 40 3 40 25 0 17 6 25 17 25 9 0 23 7 32 15 55 50
61 54 61 43 0 -9 4 -8 10 2 7 12 11 8 16 -18 4 -18 11 -35 17 -39 7 -4 8 1 3
13 -4 10 -11 42 -16 69 -9 55 -50 238 -53 242 -2 1 -7 -1 -13 -5z m24 -97 c-3
-3 -9 2 -12 12 -6 14 -5 15 5 6 7 -7 10 -15 7 -18z m-11 -37 c-3 -8 -6 -5 -6
6 -1 11 2 17 5 13 3 -3 4 -12 1 -19z"/>
<path d="M4586 1111 c-4 -5 3 -7 14 -4 23 6 26 13 6 13 -8 0 -17 -4 -20 -9z"/>
<path d="M2326 1102 c-2 -4 2 -15 9 -25 10 -15 14 -15 24 -3 9 11 8 14 -6 12
-10 0 -17 5 -15 12 2 13 -4 16 -12 4z"/>
<path d="M4510 1100 c-18 -12 -2 -12 25 0 13 6 15 9 5 9 -8 0 -22 -4 -30 -9z"/>
<path d="M3482 1067 c-17 -47 -15 -56 11 -67 29 -12 338 -120 344 -120 2 0
-54 39 -124 87 -70 48 -136 86 -146 86 -9 -1 -15 2 -12 7 6 9 -33 40 -50 40
-6 0 -16 -15 -23 -33z m38 -32 c-14 -8 -29 -14 -35 -14 -5 0 1 6 15 14 14 8
30 14 35 14 6 0 -1 -6 -15 -14z"/>
<path d="M140 1071 c0 -6 5 -13 10 -16 6 -3 10 1 10 9 0 9 -4 16 -10 16 -5 0
-10 -4 -10 -9z"/>
<path d="M4189 1063 c-13 -16 -12 -17 3 -5 9 8 23 10 29 6 8 -4 9 -3 5 4 -10
17 -21 15 -37 -5z"/>
<path d="M4405 1070 c-3 -6 1 -7 9 -4 18 7 21 14 7 14 -6 0 -13 -4 -16 -10z"/>
<path d="M110 1050 c0 -5 5 -10 10 -10 6 0 10 5 10 10 0 6 -4 10 -10 10 -5 0
-10 -4 -10 -10z"/>
<path d="M5170 1050 c0 -5 5 -10 10 -10 6 0 10 5 10 10 0 6 -4 10 -10 10 -5 0
-10 -4 -10 -10z"/>
<path d="M1565 1040 c-3 -6 1 -7 9 -4 18 7 21 14 7 14 -6 0 -13 -4 -16 -10z"/>
<path d="M4285 1030 c-13 -6 -15 -9 -5 -9 8 0 22 4 30 9 18 12 2 12 -25 0z"/>
<path d="M71 1008 c-1 -20 -21 -25 -21 -6 0 6 -2 9 -5 7 -2 -3 -2 -15 2 -27
l6 -23 14 21 c8 11 12 26 10 33 -3 7 -6 5 -6 -5z"/>
<path d="M1530 981 c0 -5 5 -13 10 -16 6 -3 10 -2 10 4 0 5 -4 13 -10 16 -5 3
-10 2 -10 -4z"/>
<path d="M2243 983 c4 -3 1 -13 -6 -22 -11 -14 -10 -14 5 -2 16 12 16 31 1 31
-4 0 -3 -3 0 -7z"/>
<path d="M4145 981 c-3 -5 -2 -12 3 -15 5 -3 9 1 9 9 0 17 -3 19 -12 6z"/>
<path d="M4055 960 c-3 -5 -1 -10 4 -10 6 0 11 5 11 10 0 6 -2 10 -4 10 -3 0
-8 -4 -11 -10z"/>
<path d="M20 944 c0 -8 5 -12 10 -9 6 3 10 10 10 16 0 5 -4 9 -10 9 -5 0 -10
-7 -10 -16z"/>
<path d="M2160 956 c0 -2 7 -7 16 -10 8 -3 12 -2 9 4 -6 10 -25 14 -25 6z"/>
<path d="M2203 953 c4 -3 -3 -18 -15 -32 l-23 -26 27 24 c24 21 29 41 11 41
-4 0 -3 -3 0 -7z"/>
<path d="M4080 940 c0 -5 5 -10 10 -10 6 0 10 5 10 10 0 6 -4 10 -10 10 -5 0
-10 -4 -10 -10z"/>
<path d="M3801 937 c2 -1 13 -9 24 -17 19 -14 19 -14 6 3 -7 9 -18 17 -24 17
-6 0 -8 -1 -6 -3z"/>
<path d="M1244 775 c0 -85 5 -155 9 -155 5 0 5 -4 2 -10 -3 -5 -35 -10 -71
-10 -74 0 -89 19 -16 21 l47 2 -60 7 c-33 5 -62 6 -64 4 -2 -2 3 -4 12 -4 10
0 14 -6 11 -14 -8 -21 5 -25 100 -27 48 -2 90 -7 93 -12 3 -4 -1 -8 -8 -6 -34
4 -48 -2 -46 -21 1 -11 7 -20 14 -20 7 0 13 -4 13 -10 0 -5 -7 -10 -17 -10 -9
0 -14 -3 -10 -6 3 -4 22 -3 42 0 27 5 35 11 31 22 -3 8 1 17 9 21 12 4 13 9 5
18 -8 10 -7 16 5 23 9 5 18 20 18 34 1 15 5 24 8 22 4 -2 10 7 13 21 4 14 18
50 31 80 31 67 31 78 3 70 -18 -5 -19 -4 -8 4 8 5 12 11 10 13 -3 2 -21 14
-40 28 -19 13 -49 24 -66 24 -22 0 -30 4 -27 13 3 7 -2 13 -11 13 -9 0 -16 5
-16 10 0 6 -4 10 -9 10 -5 0 -8 -70 -7 -155z m141 57 c-3 -3 -11 0 -18 7 -9
10 -8 11 6 5 10 -3 15 -9 12 -12z m22 -64 c-3 -8 -6 -5 -6 6 -1 11 2 17 5 13
3 -3 4 -12 1 -19z m-12 -38 c3 -5 1 -10 -4 -10 -6 0 -11 5 -11 10 0 6 2 10 4
10 3 0 8 -4 11 -10z"/>
<path d="M5 907 c-4 -10 -5 -21 -1 -24 10 -10 18 4 13 24 -4 17 -4 17 -12 0z"/>
<path d="M3979 903 c-13 -16 -12 -17 4 -4 9 7 17 15 17 17 0 8 -8 3 -21 -13z"/>
<path d="M1506 896 c3 -9 2 -16 -4 -16 -15 0 -25 -51 -11 -64 8 -8 10 -5 4 12
-9 32 11 27 23 -5 9 -25 11 -25 11 -6 1 12 -4 25 -10 29 -6 3 -8 17 -5 29 3
13 2 27 -4 30 -6 3 -7 -1 -4 -9z"/>
<path d="M1545 870 c3 -5 8 -10 11 -10 2 0 4 5 4 10 0 6 -5 10 -11 10 -5 0 -7
-4 -4 -10z"/>
<path d="M1946 834 c-3 -9 -6 -30 -6 -48 0 -18 -5 -37 -12 -44 -7 -7 -11 -28
-10 -47 2 -19 -2 -35 -8 -35 -5 0 -10 -8 -10 -17 0 -15 2 -14 19 3 10 10 16
25 13 32 -2 7 1 19 8 27 10 12 22 145 14 145 -1 0 -5 -7 -8 -16z"/>
<path d="M1975 828 c3 -17 1 -28 -5 -28 -6 0 -8 -5 -4 -11 4 -8 9 -7 15 2 7
11 9 10 9 -4 0 -21 21 -18 28 3 3 8 0 10 -7 6 -7 -5 -17 5 -27 26 -13 29 -14
30 -9 6z"/>
<path d="M1900 822 c0 -13 -6 -22 -15 -22 -17 0 -18 -15 -8 -86 l6 -48 19 79
c12 53 15 82 8 89 -7 7 -10 3 -10 -12z"/>
<path d="M2045 790 c3 -5 2 -10 -4 -10 -6 0 -16 -10 -22 -22 -11 -23 -11 -23
15 1 27 26 33 41 15 41 -5 0 -7 -4 -4 -10z"/>
<path d="M1827 740 c-3 -11 -1 -18 3 -15 5 3 11 -7 13 -22 3 -23 4 -22 6 9 1
40 -14 60 -22 28z"/>
<path d="M1441 724 c0 -11 3 -14 6 -6 3 7 2 16 -1 19 -3 4 -6 -2 -5 -13z"/>
<path d="M411 683 c-1 -24 4 -43 9 -43 6 0 8 -11 4 -25 -5 -20 -2 -25 12 -25
15 0 16 2 5 9 -7 5 -11 13 -8 18 3 5 0 31 -8 59 l-13 49 -1 -42z"/>
<path d="M1763 704 c-7 -6 -9 -15 -6 -18 4 -3 1 -6 -6 -6 -7 0 -9 -4 -6 -10
12 -19 33 -10 43 18 11 31 -3 40 -25 16z"/>
<path d="M1956 704 c-10 -25 -1 -27 19 -4 15 17 16 20 3 20 -9 0 -19 -7 -22
-16z"/>
<path d="M1791 673 c-6 -14 -10 -27 -9 -28 2 -1 17 -9 35 -17 26 -13 30 -13
26 -2 -3 8 -9 14 -14 14 -4 0 -5 8 -2 18 6 15 5 15 -10 3 -19 -15 -24 -2 -6
16 6 6 7 13 1 17 -5 3 -14 -6 -21 -21z"/>
<path d="M1431 682 c0 -7 -5 -10 -11 -7 -12 8 -13 -5 0 -25 12 -20 23 -7 17
22 -2 12 -5 17 -6 10z"/>
<path d="M1000 673 c0 -13 29 -38 35 -31 3 3 -4 13 -15 23 -11 10 -20 13 -20
8z"/>
<path d="M215 660 c-19 -8 -19 -9 3 -9 12 -1 22 4 22 9 0 6 -1 10 -2 9 -2 0
-12 -4 -23 -9z"/>
<path d="M1397 643 c-4 -3 -7 -11 -7 -17 0 -6 5 -5 12 2 6 6 9 14 7 17 -3 3
-9 2 -12 -2z"/>
<path d="M280 636 c0 -2 9 -6 20 -9 11 -3 18 -1 14 4 -5 9 -34 13 -34 5z"/>
<path d="M380 636 c0 -2 7 -7 16 -10 8 -3 12 -2 9 4 -6 10 -25 14 -25 6z"/>
<path d="M340 626 c0 -2 7 -6 15 -10 8 -3 15 -1 15 4 0 6 -7 10 -15 10 -8 0
-15 -2 -15 -4z"/>
<path d="M1056 605 c25 -19 40 -19 24 0 -7 8 -20 15 -28 15 -13 0 -12 -3 4
-15z"/>
<path d="M1738 613 c7 -3 16 -2 19 1 4 3 -2 6 -13 5 -11 0 -14 -3 -6 -6z"/>
<path d="M1660 600 c8 -5 26 -9 40 -9 l25 1 -25 8 c-14 4 -32 8 -40 9 -13 1
-13 0 0 -9z"/>
<path d="M1090 567 c0 -1 9 -10 19 -19 18 -15 21 -15 33 0 11 13 11 15 -4 9
-10 -3 -20 -2 -23 3 -6 9 -25 14 -25 7z"/>
<path d="M1595 560 c-3 -5 -1 -10 4 -10 6 0 11 5 11 10 0 6 -2 10 -4 10 -3 0
-8 -4 -11 -10z"/>
<path d="M1633 563 c9 -2 25 -2 35 0 9 3 1 5 -18 5 -19 0 -27 -2 -17 -5z"/>
<path d="M1160 531 c0 -5 -8 -11 -17 -13 -15 -3 -15 -5 -3 -9 8 -4 24 2 34 12
17 17 18 19 3 19 -9 0 -17 -4 -17 -9z"/>
<path d="M5 524 c12 -4 237 -69 377 -109 54 -14 102 -25 106 -23 5 1 5 17 0
34 -7 28 -13 32 -55 39 -27 3 -128 20 -227 36 -163 26 -227 34 -201 23z"/>
<path d="M0 315 c0 -102 3 -185 7 -185 8 0 359 177 421 213 l44 24 -33 12
c-18 6 -34 9 -37 6 -3 -3 -10 -1 -16 4 -6 5 -63 23 -126 41 -63 18 -144 41
-179 51 -35 10 -67 19 -72 19 -5 0 -9 -83 -9 -185z"/>
<path d="M995 430 c-8 -13 15 -13 35 0 12 8 11 10 -7 10 -12 0 -25 -4 -28 -10z"/>
<path d="M865 420 c-22 -4 -33 -8 -25 -9 8 -1 78 -12 155 -25 77 -13 142 -23
144 -21 2 2 -10 7 -25 11 -16 3 -67 17 -113 30 -46 13 -86 23 -90 23 -3 -1
-24 -5 -46 -9z"/>
<path d="M1385 410 c-3 -5 -2 -10 4 -10 5 0 13 5 16 10 3 6 2 10 -4 10 -5 0
-13 -4 -16 -10z"/>
<path d="M5395 234 c16 -21 38 -48 47 -59 10 -11 40 -49 66 -85 68 -95 60 -90
164 -90 l93 0 -33 20 c-18 11 -38 18 -43 14 -5 -3 -8 -1 -7 4 5 16 -106 97
-121 88 -4 -3 -18 2 -30 11 -18 12 -20 17 -10 24 11 7 10 9 -3 9 -9 0 -18 3
-20 8 -3 7 -88 70 -118 87 -8 5 -2 -9 15 -31z m35 -14 c0 -5 -2 -10 -4 -10 -3
0 -8 5 -11 10 -3 6 -1 10 4 10 6 0 11 -4 11 -10z m45 -30 c3 -5 2 -10 -4 -10
-5 0 -13 5 -16 10 -3 6 -2 10 4 10 5 0 13 -4 16 -10z m25 -29 c0 -6 -4 -13
-10 -16 -5 -3 -10 1 -10 9 0 9 5 16 10 16 6 0 10 -4 10 -9z m24 -39 c3 -5 -1
-9 -9 -9 -8 0 -12 4 -9 9 3 4 7 8 9 8 2 0 6 -4 9 -8z m41 -22 c3 -6 -1 -7 -9
-4 -18 7 -21 14 -7 14 6 0 13 -4 16 -10z m20 -22 c-11 -6 -23 -16 -27 -22 -5
-8 -8 -7 -8 1 0 12 28 32 45 32 6 0 1 -5 -10 -11z m65 -28 c12 -8 11 -10 -7
-10 -12 0 -25 5 -28 10 -8 13 15 13 35 0z m-30 -30 c0 -5 -4 -10 -10 -10 -5 0
-10 5 -10 10 0 6 5 10 10 10 6 0 10 -4 10 -10z"/>
<path d="M5545 140 c3 -5 8 -10 11 -10 2 0 4 5 4 10 0 6 -5 10 -11 10 -5 0 -7
-4 -4 -10z"/>
</g>
</svg>
